<svg width="77" height="80" viewBox="0 0 77 80" fill="none" xmlns="http://www.w3.org/2000/svg">
<g clip-path="url(#clip0_4_348)">
<path d="M56.7517 0.882049C51.7481 2.18188 47.3346 5.65216 42.9478 10.2048C44.3915 11.5206 45.2636 13.3487 45.378 15.2988C45.4923 17.2488 44.8398 19.1663 43.5598 20.6419C42.2798 22.1175 40.4736 23.0342 38.527 23.1964C36.5803 23.3586 34.6474 22.7534 33.1408 21.51C27.9879 27.6656 22.3615 34.1731 15.4943 39.5515C-1.99045 53.2458 33.9659 78.221 56.7517 78.221C79.5375 78.221 98.009 60.9081 98.009 39.5515C98.009 18.195 78.7097 -4.82219 56.7517 0.882049Z" fill="#F2F2F2"/>
<path d="M37.7091 20.7776C40.6558 20.7776 43.0446 18.3889 43.0446 15.4422C43.0446 12.4955 40.6558 10.1067 37.7091 10.1067C34.7624 10.1067 32.3737 12.4955 32.3737 15.4422C32.3737 18.3889 34.7624 20.7776 37.7091 20.7776Z" fill="#FF6584"/>
<path d="M88.742 71.7485C96.5771 71.7485 102.929 70.9243 102.929 69.9075C102.929 68.8907 96.5771 68.0665 88.742 68.0665C80.9069 68.0665 74.5553 68.8907 74.5553 69.9075C74.5553 70.9243 80.9069 71.7485 88.742 71.7485Z" fill="#3F3D56"/>
<path d="M38.5456 80C46.3807 80 52.7323 79.1757 52.7323 78.159C52.7323 77.1422 46.3807 76.3179 38.5456 76.3179C30.7105 76.3179 24.3589 77.1422 24.3589 78.159C24.3589 79.1757 30.7105 80 38.5456 80Z" fill="#3F3D56"/>
<path d="M81.3086 21.8244L81.9015 22.9255C81.9015 22.9255 82.325 21.4009 82.9179 21.1468C83.5108 20.8927 84.9508 20.4692 84.9508 20.1304C84.9508 19.7916 84.8661 18.9445 85.2049 18.9445C85.5437 18.9445 88.847 19.961 89.3552 20.2998C89.8634 20.6386 89.9481 20.9774 89.9481 20.9774L89.0164 30.718C89.0164 30.718 90.3716 35.2919 89.9481 37.0706C89.5246 38.8493 89.1858 39.1034 88.1694 39.3575C87.153 39.6116 87.7459 38.7646 84.7814 39.6116C81.8168 40.4587 79.9534 40.2046 79.2758 40.2046C78.5982 40.2046 78.1747 40.5434 78.0053 40.6281C77.8359 40.7128 77.9206 40.2046 78.5135 39.4422C79.1064 38.6799 78.8523 37.4094 78.8523 37.4094C78.8523 37.4094 78.1747 35.2072 78.5982 34.3602C79.0217 33.5132 79.6146 32.412 79.1064 32.0732C78.5982 31.7344 77.9206 29.1934 77.9206 29.1934L76.0571 22.5867L79.8687 19.961C79.8687 19.961 79.6993 21.1468 80.2922 21.4009C80.8851 21.655 81.3086 21.8244 81.3086 21.8244Z" fill="#575A89"/>
<path d="M76.5653 22.502H76.0571C76.0571 22.502 75.2101 23.9419 75.2101 24.9583C75.2101 25.9747 75.6336 31.7344 75.6336 31.7344L78.0899 34.2755L78.6828 32.3273L78.8522 28.0076L76.5653 22.502Z" fill="#575A89"/>
<path d="M77.9205 31.4803C77.9205 31.4803 75.1253 30.718 75.21 31.9038C75.2947 33.0897 75.7182 34.5296 77.0734 34.8684C78.4287 35.2072 78.8522 33.3438 78.8522 33.3438C78.8522 33.3438 79.0216 31.6497 77.9205 31.4803Z" fill="#575A89"/>
<path d="M73.8954 27.4457L75.35 26.8103C75.3769 26.7985 75.4059 26.7922 75.4352 26.7916C75.4646 26.791 75.4937 26.7963 75.5211 26.807C75.5484 26.8177 75.5734 26.8337 75.5945 26.854C75.6157 26.8744 75.6326 26.8987 75.6443 26.9256L77.2615 30.6275C77.2905 30.6938 77.2919 30.769 77.2655 30.8364C77.2391 30.9038 77.1869 30.958 77.1206 30.987L75.7567 31.5828C75.6903 31.6118 75.6152 31.6132 75.5477 31.5868C75.4803 31.5604 75.4262 31.5082 75.3972 31.4419L73.78 27.74C73.7563 27.6857 73.7551 27.6242 73.7768 27.569C73.7984 27.5138 73.8411 27.4694 73.8954 27.4457Z" fill="#2F2E41"/>
<path opacity="0.1" d="M73.8954 27.4457L75.35 26.8103C75.3769 26.7985 75.4059 26.7922 75.4352 26.7916C75.4646 26.791 75.4937 26.7963 75.5211 26.807C75.5484 26.8177 75.5734 26.8337 75.5945 26.854C75.6157 26.8744 75.6326 26.8987 75.6443 26.9256L77.2615 30.6275C77.2905 30.6938 77.2919 30.769 77.2655 30.8364C77.2391 30.9038 77.1869 30.958 77.1206 30.987L75.7567 31.5828C75.6903 31.6118 75.6152 31.6132 75.5477 31.5868C75.4803 31.5604 75.4262 31.5082 75.3972 31.4419L73.78 27.74C73.7563 27.6857 73.7551 27.6242 73.7768 27.569C73.7984 27.5138 73.8411 27.4694 73.8954 27.4457Z" fill="black"/>
<path d="M73.978 27.6346L75.2462 27.0806C75.3006 27.0569 75.3621 27.0557 75.4173 27.0774C75.4725 27.099 75.5168 27.1417 75.5406 27.196L77.0752 30.7089C77.1041 30.7753 77.1056 30.8504 77.0792 30.9178C77.0527 30.9853 77.0006 31.0394 76.9343 31.0684L75.7568 31.5828C75.6904 31.6118 75.6153 31.6132 75.5479 31.5868C75.4804 31.5604 75.4263 31.5082 75.3973 31.4419L73.8627 27.929C73.8389 27.8747 73.8378 27.8131 73.8594 27.7579C73.881 27.7027 73.9237 27.6584 73.978 27.6346Z" fill="#2F2E41"/>
<path d="M75.1443 29.1331C75.3502 29.0432 75.4433 28.8011 75.3521 28.5923C75.2609 28.3836 75.0201 28.2874 74.8141 28.3773C74.6082 28.4673 74.5152 28.7094 74.6064 28.9181C74.6975 29.1268 74.9384 29.2231 75.1443 29.1331Z" fill="#F2F2F2"/>
<path d="M75.7403 32.0853C75.6614 32.1062 75.5778 32.0992 75.5034 32.0657C75.429 32.0321 75.3685 31.974 75.332 31.901C74.9427 31.1228 73.8881 28.8401 74.8712 28.7699C75.7782 28.7051 76.5861 30.4737 76.9159 31.309C76.9369 31.3621 76.9464 31.419 76.9437 31.476C76.9411 31.533 76.9264 31.5888 76.9007 31.6397C76.8749 31.6906 76.8386 31.7354 76.7942 31.7713C76.7498 31.8072 76.6983 31.8332 76.6431 31.8477L75.7403 32.0853Z" fill="#FFB9B9"/>
<path d="M49.0978 5.79568H74.9327V19.3517H73.0663V24.3615L68.0565 19.3517H49.0978V5.79568Z" fill="#F9A826"/>
<path d="M62.0153 15.4753L61.5594 15.0641C59.9406 13.5778 58.8718 12.6131 58.8718 11.4114C58.8678 11.1828 58.9097 10.9557 58.9951 10.7435C59.0804 10.5314 59.2074 10.3385 59.3686 10.1763C59.5298 10.0141 59.7219 9.88594 59.9336 9.79932C60.1452 9.71271 60.3721 9.66943 60.6007 9.67205C60.8706 9.67349 61.1369 9.73364 61.3811 9.84833C61.6254 9.96302 61.8418 10.1295 62.0153 10.3362C62.1887 10.1295 62.4051 9.96301 62.6494 9.84832C62.8936 9.73363 63.16 9.67349 63.4298 9.67205C63.6585 9.66943 63.8853 9.71271 64.0969 9.79932C64.3086 9.88594 64.5007 10.0141 64.6619 10.1763C64.8231 10.3385 64.9501 10.5314 65.0355 10.7435C65.1208 10.9557 65.1627 11.1828 65.1587 11.4114C65.1587 12.6131 64.0899 13.5778 62.4711 15.0641L62.0153 15.4753Z" fill="white"/>
<path d="M0 39.0493L24.8521 31.9909L28.5557 45.0312L26.7603 45.5411L28.1291 50.3604L21.9411 46.9099L3.70363 52.0896L0 39.0493Z" fill="#F9A826"/>
<path d="M15.0706 44.8315L14.5198 44.5605C12.5565 43.573 11.2648 42.937 10.9365 41.7811C10.8702 41.5622 10.8485 41.3323 10.8726 41.1049C10.8967 40.8775 10.9662 40.6573 11.077 40.4572C11.1877 40.2572 11.3375 40.0814 11.5174 39.9402C11.6973 39.7991 11.9037 39.6955 12.1244 39.6355C12.3844 39.5632 12.657 39.5483 12.9233 39.5919C13.1896 39.6355 13.4432 39.7365 13.6666 39.8879C13.777 39.6417 13.9396 39.4224 14.1433 39.2454C14.3469 39.0683 14.5867 38.9377 14.8458 38.8626C15.0651 38.7976 15.2951 38.7772 15.5224 38.8027C15.7496 38.8282 15.9694 38.8991 16.1688 39.011C16.3682 39.123 16.5431 39.2738 16.6832 39.4546C16.8232 39.6354 16.9256 39.8424 16.9842 40.0634C17.3125 41.2194 16.548 42.4394 15.3968 44.3114L15.0706 44.8315Z" fill="white"/>
<path d="M28.5301 31.1506C28.5301 31.1506 27.6901 33.6707 28.1568 34.2307C28.6235 34.7907 25.3567 32.5507 25.3567 32.5507L27.1301 30.4973L28.5301 31.1506Z" fill="#A0616A"/>
<path d="M26.6145 31.1465C28.9289 31.1465 30.8051 29.2703 30.8051 26.9559C30.8051 24.6415 28.9289 22.7653 26.6145 22.7653C24.3 22.7653 22.4238 24.6415 22.4238 26.9559C22.4238 29.2703 24.3 31.1465 26.6145 31.1465Z" fill="#2F2E41"/>
<path d="M42.9038 59.5248L40.7572 61.2049L39.5438 59.2449L41.6905 57.7514L42.9038 59.5248Z" fill="#A0616A"/>
<path d="M39.8704 72.1719L40.4305 74.8787L42.0172 77.0254C42.0172 77.0254 46.3106 78.3321 43.4172 78.9855C40.5238 79.6388 39.8704 78.5188 39.8704 78.5188L37.817 76.7454V79.1721H36.5103L36.2303 75.7187C36.2303 75.7187 36.0436 74.692 36.8837 73.572L37.0703 71.8919L39.8704 72.1719Z" fill="#2F2E41"/>
<path d="M29.0434 38.6642L29.7901 42.9577C29.7901 42.9577 37.7237 42.1176 38.2837 43.7044C38.8437 45.2911 39.0304 45.7577 39.0304 45.7577L37.4436 46.3178L36.697 44.9177C36.4695 44.8372 36.228 44.8039 35.9873 44.82C35.7466 44.836 35.5116 44.901 35.2969 45.0111C34.5502 45.3844 28.0167 46.3178 27.55 45.1044C27.0833 43.891 25.7766 39.4109 25.7766 39.4109L27.7367 37.8242L29.0434 38.6642Z" fill="#A0616A"/>
<path opacity="0.1" d="M29.0434 38.6642L29.7901 42.9577C29.7901 42.9577 37.7237 42.1176 38.2837 43.7044C38.8437 45.2911 39.0304 45.7577 39.0304 45.7577L37.4436 46.3178L36.697 44.9177C36.4695 44.8372 36.228 44.8039 35.9873 44.82C35.7466 44.836 35.5116 44.901 35.2969 45.0111C34.5502 45.3844 28.0167 46.3178 27.55 45.1044C27.0833 43.891 25.7766 39.4109 25.7766 39.4109L27.7367 37.8242L29.0434 38.6642Z" fill="black"/>
<path d="M33.4302 51.0779L34.0835 53.318L35.7636 61.9049C35.7636 61.9049 35.9503 68.2518 36.2303 68.9985C36.5103 69.7452 36.5103 69.8385 36.2303 70.1185C35.9503 70.3985 35.3902 71.3319 36.2303 71.8919C37.0703 72.4519 40.0571 73.1053 40.1504 72.4519C40.2437 71.7986 40.2437 70.7719 40.1504 70.3052C40.057 69.8385 40.4304 62.5583 40.4304 62.5583L39.3104 51.4513L35.4836 49.6779L33.4302 51.0779Z" fill="#2F2E41"/>
<path opacity="0.1" d="M33.4302 51.0779L34.0835 53.318L35.7636 61.9049C35.7636 61.9049 35.9503 68.2518 36.2303 68.9985C36.5103 69.7452 36.5103 69.8385 36.2303 70.1185C35.9503 70.3985 35.3902 71.3319 36.2303 71.8919C37.0703 72.4519 40.0571 73.1053 40.1504 72.4519C40.2437 71.7986 40.2437 70.7719 40.1504 70.3052C40.057 69.8385 40.4304 62.5583 40.4304 62.5583L39.3104 51.4513L35.4836 49.6779L33.4302 51.0779Z" fill="black"/>
<path d="M37.4437 42.3043L39.4971 46.2244C39.4971 46.2244 51.2575 51.4513 50.2308 53.598C49.2041 55.7447 43.5106 59.7582 43.5106 59.7582C43.5106 59.7582 43.2306 61.3449 42.3905 60.8782C41.5505 60.4116 39.4971 57.9848 39.6838 57.7048C39.8705 57.4248 40.5238 56.7714 40.8038 56.8648C41.0838 56.9581 44.3506 54.438 44.3506 54.438L38.7504 53.038C38.7504 53.038 32.0302 52.8513 31.6569 49.6779C31.2835 46.5044 31.6569 45.9444 31.6569 45.9444L31.1902 44.9177L35.017 42.5843L37.4437 42.3043Z" fill="#2F2E41"/>
<path d="M40.3371 57.7981L38.3771 59.5715C38.3771 59.5715 36.697 58.8248 35.6703 59.1048C34.6436 59.3848 32.8702 59.5715 32.8702 59.5715L33.1502 61.1582L35.5316 60.7189L33.6169 63.3983C33.6169 63.3983 33.6169 67.5984 34.8303 67.5984C36.0437 67.5984 35.6703 65.0784 35.6703 65.0784L39.4038 62.1849C39.4038 62.1849 41.2705 61.4382 41.4572 61.4382C41.6438 61.4382 40.3371 57.7981 40.3371 57.7981Z" fill="#2F2E41"/>
<path d="M28.1567 31.8973C29.9093 31.8973 31.3301 30.4765 31.3301 28.7239C31.3301 26.9712 29.9093 25.5505 28.1567 25.5505C26.4041 25.5505 24.9833 26.9712 24.9833 28.7239C24.9833 30.4765 26.4041 31.8973 28.1567 31.8973Z" fill="#A0616A"/>
<path d="M25.03 31.1973C25.03 31.1973 26.5233 30.824 26.99 31.1973C27.4567 31.5706 27.55 32.4107 28.2034 32.504C28.8567 32.5973 29.4168 32.5973 29.5101 32.6907C29.6034 32.784 31.7502 35.3974 31.7502 35.3974C31.7502 35.3974 33.0569 36.1441 33.3369 37.1708C33.6169 38.1975 36.417 41.651 36.7903 42.0243C37.1637 42.3976 34.3636 44.2644 33.4302 44.9177C32.4969 45.5711 29.7901 45.8511 28.9501 44.3577C28.11 42.8643 23.5366 33.1574 25.03 31.1973Z" fill="#575A89"/>
<path d="M28.5767 37.2642L29.3234 41.5576C29.3234 41.5576 37.257 40.7176 37.817 42.3043C38.377 43.891 38.5637 44.3577 38.5637 44.3577L36.977 44.9177L36.2303 43.5177C36.0028 43.4371 35.7614 43.4039 35.5206 43.4199C35.2799 43.436 35.045 43.501 34.8302 43.611C34.0835 43.9844 27.55 44.9177 27.0833 43.7044C26.6166 42.491 25.3099 38.0108 25.3099 38.0108L27.27 36.4241L28.5767 37.2642Z" fill="#A0616A"/>
<path d="M26.7931 31.59C26.7931 31.59 29.0434 36.3308 28.8567 37.6375C28.67 38.9442 28.0167 38.0108 28.0167 38.0108C28.0167 38.0108 27.1767 36.7041 26.8033 37.4508C26.43 38.1975 25.9633 39.2242 25.5899 39.1309C25.2166 39.0375 23.1632 32.1307 24.2832 31.4773C25.4033 30.8239 26.7931 31.59 26.7931 31.59Z" fill="#575A89"/>
<path d="M22.0745 25.6289C24.389 25.6289 26.2652 23.7527 26.2652 21.4383C26.2652 19.1238 24.389 17.2476 22.0745 17.2476C19.7601 17.2476 17.8839 19.1238 17.8839 21.4383C17.8839 23.7527 19.7601 25.6289 22.0745 25.6289Z" fill="#2F2E41"/>
<path d="M18.4599 24.9084C19.0023 25.3004 19.6307 25.5568 20.2925 25.6562C20.9544 25.7556 21.6303 25.695 22.264 25.4795C22.8976 25.2641 23.4704 24.9001 23.9344 24.4179C24.3985 23.9357 24.7404 23.3493 24.9314 22.7079C24.8591 23.2827 24.6684 23.8363 24.3714 24.3337C24.0744 24.8311 23.6775 25.2615 23.2057 25.5977C22.734 25.934 22.1976 26.1688 21.6306 26.2873C21.0635 26.4058 20.478 26.4055 19.9111 26.2863C19.3441 26.1671 18.8081 25.9317 18.3367 25.5948C17.8654 25.258 17.469 24.8272 17.1726 24.3294C16.8761 23.8317 16.6861 23.2779 16.6145 22.703C16.5429 22.1281 16.5913 21.5446 16.7566 20.9894C16.6627 21.7354 16.7713 22.4928 17.071 23.1824C17.3707 23.8719 17.8505 24.4681 18.4599 24.9084Z" fill="#2F2E41"/>
<path d="M25.497 30.7275C27.1942 30.7275 28.5701 29.3516 28.5701 27.6543C28.5701 25.9571 27.1942 24.5812 25.497 24.5812C23.7997 24.5812 22.4238 25.9571 22.4238 27.6543C22.4238 29.3516 23.7997 30.7275 25.497 30.7275Z" fill="#2F2E41"/>
<path d="M28.0811 28.6322C29.5855 28.6322 30.805 27.6784 30.805 26.5019C30.805 25.3254 29.5855 24.3717 28.0811 24.3717C26.5767 24.3717 25.3572 25.3254 25.3572 26.5019C25.3572 27.6784 26.5767 28.6322 28.0811 28.6322Z" fill="#2F2E41"/>
<path d="M28.2034 30.1239C28.5384 30.1239 28.81 29.6434 28.81 29.0506C28.81 28.4578 28.5384 27.9772 28.2034 27.9772C27.8683 27.9772 27.5967 28.4578 27.5967 29.0506C27.5967 29.6434 27.8683 30.1239 28.2034 30.1239Z" fill="#A0616A"/>
<path d="M36.5312 44.8769C36.5312 44.8769 38.1835 43.929 38.4903 44.1667C38.797 44.4044 38.9333 45.1482 38.9333 45.1482L37.0236 45.8978L36.4636 44.8711L36.5312 44.8769Z" fill="#2F2E41"/>
<path d="M28.6575 77.2259V65.8219" stroke="#3F3D56" stroke-width="2" stroke-miterlimit="10"/>
<path d="M28.6574 67.4346C29.548 67.4346 30.2701 66.7125 30.2701 65.8219C30.2701 64.9312 29.548 64.2092 28.6574 64.2092C27.7667 64.2092 27.0447 64.9312 27.0447 65.8219C27.0447 66.7125 27.7667 67.4346 28.6574 67.4346Z" fill="#3F3D56"/>
<path d="M28.6574 72.8504C28.6574 72.8504 28.427 67.8953 23.7041 68.4713L28.6574 72.8504Z" fill="#3F3D56"/>
<path d="M77.7733 68.778V57.3739" stroke="#3F3D56" stroke-width="2" stroke-miterlimit="10"/>
<path d="M77.7733 58.9866C78.664 58.9866 79.386 58.2646 79.386 57.3739C79.386 56.4833 78.664 55.7612 77.7733 55.7612C76.8827 55.7612 76.1606 56.4833 76.1606 57.3739C76.1606 58.2646 76.8827 58.9866 77.7733 58.9866Z" fill="#3F3D56"/>
<path d="M77.7734 64.4025C77.7734 64.4025 77.543 59.4474 72.8201 60.0234L77.7734 64.4025Z" fill="#3F3D56"/>
</g>
<defs>
<clipPath id="clip0_4_348">
<rect width="104.253" height="80" fill="white"/>
</clipPath>
</defs>
</svg>
