<svg width="124" height="80" viewBox="0 0 124 80" fill="none" xmlns="http://www.w3.org/2000/svg">
<g clip-path="url(#clip0_4_290)">
<path d="M123.199 37.5597C123.199 40.7425 121.998 43.8081 119.836 46.1437C117.673 48.4792 114.709 49.9126 111.536 50.1573C111.429 50.1654 111.32 50.1735 111.212 50.1784V38.1866C111.212 38.0667 111.185 37.9484 111.134 37.8402C111.082 37.732 111.007 37.6367 110.914 37.5613C110.903 37.5503 110.891 37.5405 110.878 37.5322C110.866 37.5226 110.854 37.5139 110.841 37.5062C110.727 37.433 110.597 37.3894 110.462 37.3795C110.327 37.3696 110.192 37.3937 110.068 37.4496L109.934 37.1547C110.081 37.0878 110.24 37.053 110.402 37.0527L101.175 29.104C101.247 29.023 101.321 28.9437 101.396 28.8643C103.135 27.0307 105.384 25.7608 107.853 25.2188C110.322 24.6768 112.896 24.8875 115.244 25.8238C117.591 26.76 119.604 28.3788 121.022 30.4709C122.441 32.563 123.199 35.0323 123.199 37.5597V37.5597Z" fill="#F2F2F2"/>
<path d="M3.20377 46.1751C3.15788 45.9406 3.16396 45.699 3.22156 45.4672C3.27917 45.2353 3.3869 45.019 3.53718 44.8333C3.68745 44.6476 3.87661 44.4971 4.09134 44.3924C4.30606 44.2878 4.54112 44.2314 4.77997 44.2275L12.0632 35.5574L13.8815 37.8822L6.45885 45.9511C6.43898 46.3528 6.27244 46.7333 5.99081 47.0204C5.70917 47.3075 5.332 47.4813 4.93077 47.5089C4.52954 47.5365 4.13213 47.416 3.81383 47.1701C3.49554 46.9243 3.27847 46.5702 3.20377 46.1751H3.20377Z" fill="#FFB8B8"/>
<path d="M37.7891 35.5038C37.7381 35.5775 37.693 35.6552 37.6543 35.736L29.7017 36.8728L28.4941 35.3396L25.9421 36.8597L28.341 40.5998L38.0399 37.7407C38.2959 37.9724 38.6163 38.1207 38.9586 38.1658C39.3008 38.211 39.6488 38.1508 39.956 37.9935C40.2633 37.8361 40.5154 37.5888 40.6787 37.2847C40.8421 36.9805 40.909 36.6339 40.8705 36.2908C40.832 35.9477 40.69 35.6245 40.4634 35.364C40.2367 35.1036 39.9361 34.9184 39.6016 34.833C39.2671 34.7475 38.9145 34.766 38.5908 34.8858C38.267 35.0056 37.9874 35.2212 37.7891 35.5038Z" fill="#FFB8B8"/>
<path d="M24.205 64.4718L25.6123 65.873L31.6868 61.1119L29.6098 59.0438L24.205 64.4718Z" fill="#FFB8B8"/>
<path d="M27.0251 69.8822L22.6023 65.4783L24.3038 63.7695L27.0178 66.4719C27.2422 66.6953 27.4204 66.9608 27.5422 67.2531C27.6641 67.5454 27.7271 67.8588 27.7278 68.1755C27.7285 68.4922 27.6668 68.8059 27.5462 69.0987C27.4256 69.3916 27.2486 69.6578 27.0251 69.8822L27.0251 69.8822Z" fill="#2F2E41"/>
<path d="M16.7244 77.912H18.7104L19.6551 70.252H16.7241L16.7244 77.912Z" fill="#FFB8B8"/>
<path d="M22.5403 79.7558L16.2989 79.7561L16.2987 77.3446L20.1287 77.3444C20.4454 77.3444 20.759 77.4068 21.0515 77.528C21.3441 77.6491 21.61 77.8267 21.8339 78.0507C22.0578 78.2746 22.2355 78.5404 22.3567 78.833C22.4779 79.1255 22.5403 79.4391 22.5403 79.7558V79.7558Z" fill="#2F2E41"/>
<path d="M16.2926 71.9958L14.0306 55.3134C13.6766 52.7922 13.7864 50.2276 14.3547 47.7459C14.8189 45.7516 15.446 44.3701 16.2187 43.6401C16.3406 43.5257 16.4967 43.4544 16.663 43.4372L24.1316 42.6592C24.2755 42.6445 24.4205 42.671 24.5499 42.7357C24.6793 42.8003 24.7876 42.9004 24.8622 43.0243L25.1077 43.4334C25.1375 43.4831 25.1615 43.536 25.1793 43.5911L26.7584 48.4863C26.782 48.5603 26.82 48.6288 26.8703 48.688C26.9206 48.7471 26.9821 48.7957 27.0514 48.8308C29.5375 50.1001 37.6134 54.3849 37.1512 56.2336C36.7169 57.9705 32.6513 60.7869 31.4156 61.6087C31.2898 61.6928 31.1416 61.7372 30.9902 61.736C30.8389 61.7349 30.6913 61.6883 30.5668 61.6022L28.5156 60.1988C28.4154 60.1303 28.3331 60.0388 28.2756 59.9319C28.218 59.8251 28.1869 59.706 28.1848 59.5847C28.1827 59.4634 28.2096 59.3433 28.2634 59.2345C28.3172 59.1257 28.3962 59.0314 28.4939 58.9594L29.9084 57.9171C29.995 57.8533 30.0625 57.7671 30.1038 57.6678C30.145 57.5684 30.1584 57.4597 30.1424 57.3534C30.1265 57.247 30.0818 57.147 30.0133 57.0642C29.9448 56.9813 29.8549 56.9187 29.7535 56.8831L22.1566 54.2175C22.0713 54.1875 21.9802 54.1775 21.8905 54.1883C21.8007 54.199 21.7146 54.2302 21.6388 54.2795C21.563 54.3287 21.4995 54.3947 21.4531 54.4723C21.4068 54.5499 21.3789 54.6371 21.3715 54.7272L19.9708 71.8471C19.9553 72.0307 19.8739 72.2024 19.7416 72.3306C19.6093 72.4588 19.435 72.5347 19.2511 72.5443L17.0838 72.6527C17.0706 72.6533 17.0575 72.6537 17.0445 72.6537C16.8605 72.6544 16.6827 72.5879 16.5442 72.4668C16.4058 72.3457 16.3163 72.1782 16.2926 71.9958V71.9958Z" fill="#2F2E41"/>
<path d="M19.7179 28.8472C21.9152 28.8472 23.6965 27.066 23.6965 24.8687C23.6965 22.6714 21.9152 20.8901 19.7179 20.8901C17.5206 20.8901 15.7394 22.6714 15.7394 24.8687C15.7394 27.066 17.5206 28.8472 19.7179 28.8472Z" fill="#FFB8B8"/>
<path d="M15.9967 42.9586L13.0681 32.2733L13.1183 32.2395C13.1812 32.1971 19.4935 28.0289 26.8839 31.3879L27.0179 31.4648L25.2826 42.5555C25.2447 42.8086 25.1197 43.0405 24.9291 43.2113C24.7386 43.3822 24.4944 43.4811 24.2387 43.4912L17.0979 43.7658C17.0835 43.7663 17.0691 43.7667 17.0549 43.7667C16.8141 43.7672 16.58 43.6883 16.3886 43.5422C16.1973 43.3961 16.0595 43.191 15.9967 42.9586V42.9586Z" fill="#CCCCCC"/>
<path d="M12.9568 39.2296L10.5177 36.4248C10.4002 36.29 10.3341 36.1181 10.3309 35.9394C10.3278 35.7606 10.3878 35.5865 10.5005 35.4477L13.0502 32.2979L15.0076 32.8317L16.0453 36.4637L14.1532 39.1668C14.0872 39.2616 14.0003 39.3401 13.8992 39.3961C13.7982 39.4521 13.6856 39.4843 13.5702 39.49C13.5566 39.4906 13.543 39.491 13.5294 39.491C13.4208 39.4912 13.3134 39.4679 13.2146 39.4228C13.1157 39.3777 13.0278 39.3118 12.9568 39.2296V39.2296Z" fill="#CCCCCC"/>
<path d="M26.4444 38.6453C26.329 38.6396 26.2164 38.6075 26.1154 38.5515C26.0143 38.4954 25.9275 38.417 25.8615 38.3221L23.9694 35.6191L24.8795 31.7958L26.6816 31.3043L27.0179 31.4648L29.5142 34.603C29.6268 34.7418 29.6869 34.916 29.6837 35.0947C29.6805 35.2735 29.6144 35.4454 29.4969 35.5801L27.0579 38.385C26.9868 38.4672 26.8989 38.5331 26.8001 38.5782C26.7012 38.6233 26.5938 38.6465 26.4852 38.6463C26.4717 38.6463 26.458 38.646 26.4444 38.6453Z" fill="#CCCCCC"/>
<path d="M111.212 37.3929C111.213 37.4332 111.2 37.4726 111.173 37.503C111.145 37.5357 111.105 37.5559 111.063 37.5592C111.02 37.5626 110.977 37.5487 110.945 37.5208L110.402 37.0527L101.175 29.104L75.2965 6.80669C75.1489 6.68032 74.9608 6.611 74.7665 6.6113C74.5722 6.61159 74.3844 6.68149 74.2371 6.80831L39.3875 37.0851L39.0732 37.3572C39.0611 37.3679 39.0475 37.3766 39.0327 37.3831C39.0068 37.3946 38.9783 37.3991 38.9501 37.3961C38.9096 37.3918 38.8721 37.3728 38.8448 37.3426C38.8307 37.3267 38.8199 37.3082 38.813 37.288C38.8061 37.2679 38.8033 37.2466 38.8046 37.2254C38.806 37.2042 38.8115 37.1835 38.8209 37.1644C38.8303 37.1453 38.8434 37.1283 38.8593 37.1142L38.9031 37.0754L74.0249 6.56371C74.2313 6.38646 74.4941 6.28873 74.7662 6.28813C75.0382 6.28754 75.3015 6.38412 75.5086 6.56047L101.396 28.8643L111.155 37.2746C111.172 37.2894 111.186 37.3075 111.196 37.3278C111.206 37.3482 111.211 37.3703 111.212 37.3929V37.3929Z" fill="#3F3D56"/>
<path d="M91.5356 42.1763L91.1096 41.0035L89.642 36.9539L86.48 28.2342L82.9455 18.4875L76.5713 0.907163C76.4462 0.564332 76.1902 0.285071 75.8596 0.130535C75.529 -0.024001 75.1506 -0.0412174 74.8073 0.0826557L37.9539 13.4449C37.611 13.5699 37.3316 13.8258 37.1771 14.1565C37.0225 14.4871 37.0054 14.8656 37.1294 15.2089L46.1666 40.132L46.3205 40.5581L55.8064 44.8572L58.4726 46.0656L58.9051 46.2616L70.194 51.3787L70.6313 51.22L78.0357 48.5359L89.2046 44.4862L90.7095 43.9403C91.0526 43.8154 91.3322 43.5596 91.487 43.229C91.6419 42.8983 91.6593 42.5198 91.5356 42.1763V42.1763Z" fill="#E6E6E6"/>
<path d="M76.0821 21.4162C75.8982 20.9116 75.5218 20.5006 75.0354 20.2731C74.5489 20.0457 73.9921 20.0204 73.4871 20.2029L58.9051 25.4918L51.8636 28.0447C51.6134 28.1351 51.3835 28.2739 51.187 28.4533C50.9905 28.6326 50.8313 28.8489 50.7184 29.0898C50.6056 29.3308 50.5413 29.5916 50.5293 29.8573C50.5173 30.1231 50.5578 30.3886 50.6484 30.6387C50.7391 30.8888 50.8782 31.1186 51.0577 31.3149C51.2373 31.5113 51.4538 31.6703 51.6948 31.7829C51.9358 31.8955 52.1967 31.9595 52.4624 31.9713C52.7282 31.983 52.9937 31.9422 53.2437 31.8513L58.9051 29.799L74.8688 24.0112C75.3734 23.8274 75.7844 23.4509 76.0119 22.9645C76.2393 22.478 76.2645 21.9212 76.0821 21.4162V21.4162Z" fill="white"/>
<path d="M78.6495 28.4982C78.4657 27.9937 78.0892 27.5826 77.6028 27.3552C77.1163 27.1277 76.5595 27.1025 76.0545 27.2849L73.5842 28.1807L58.905 33.5036L54.431 35.1251C53.9265 35.3084 53.5154 35.6846 53.2881 36.1709C53.0608 36.6572 53.0358 37.2139 53.2187 37.7186C53.4016 38.2233 53.7774 38.6348 54.2635 38.8625C54.7496 39.0903 55.3063 39.1158 55.8112 38.9333L58.905 37.8108L77.4363 31.0916C77.4783 31.077 77.5188 31.0592 77.5593 31.0414C78.0298 30.835 78.4043 30.4573 78.6067 29.9851C78.8091 29.5129 78.8244 28.9813 78.6495 28.4982V28.4982Z" fill="white"/>
<path d="M81.2445 35.6547C81.0611 35.1503 80.685 34.7392 80.1988 34.5118C79.7126 34.2843 79.156 34.259 78.6512 34.4415L71.7231 36.9539L66.3596 38.8993L58.9051 41.6013L57.0261 42.2832C56.5918 42.4414 56.2246 42.7431 55.9851 43.1384C55.7456 43.5337 55.6482 43.9989 55.7091 44.4571C55.7276 44.5934 55.7602 44.7275 55.8063 44.8572L58.4726 46.0656L58.9051 45.9085H58.9083L72.4358 41.0035L80.0312 38.2498C80.5361 38.0663 80.9474 37.6899 81.1749 37.2034C81.4025 36.7168 81.4275 36.1598 81.2445 35.6547H81.2445Z" fill="white"/>
<path d="M66.0616 14.454C65.8778 13.9495 65.5014 13.5384 65.0149 13.311C64.5285 13.0836 63.9717 13.0583 63.4666 13.2408L55.0919 16.2764C54.5874 16.4597 54.1763 16.8359 53.949 17.3222C53.7217 17.8086 53.6967 18.3652 53.8796 18.8699C54.0625 19.3746 54.4383 19.7861 54.9244 20.0139C55.4105 20.2416 55.9672 20.2671 56.472 20.0847L59.1222 19.1241L60.8764 18.4875L64.8484 17.0474C65.3528 16.864 65.7639 16.4878 65.9914 16.0016C66.2188 15.5154 66.2441 14.9589 66.0616 14.454Z" fill="white"/>
<path d="M99.4825 18.4875H60.2819C60.0507 18.4877 59.8233 18.5462 59.6206 18.6574C59.4179 18.7687 59.2465 18.9292 59.1221 19.1241C58.98 19.3448 58.9046 19.6018 58.905 19.8644V46.2616L70.1939 51.3787L71.7846 52.0996L74.2969 53.2383C74.4441 53.3048 74.6036 53.3392 74.7651 53.3392C74.9265 53.3392 75.0861 53.3048 75.2333 53.2383L77.7456 52.0996L85.6084 48.5359L92.9367 45.2135L100.859 41.6239V19.8644C100.859 19.4993 100.714 19.1492 100.456 18.891C100.198 18.6329 99.8476 18.4877 99.4825 18.4875Z" fill="#F9A826"/>
<path d="M91.3833 36.9539H68.3813C67.8583 36.9542 67.3557 37.1569 66.9788 37.5196C66.6019 37.8822 66.3801 38.3767 66.3597 38.8993C66.357 38.9257 66.3559 38.9522 66.3565 38.9787C66.3572 39.5155 66.5708 40.0301 66.9504 40.4096C67.3299 40.7892 67.8445 41.0028 68.3813 41.0035H91.3833C91.9203 41.0035 92.4353 40.7902 92.815 40.4105C93.1948 40.0307 93.4081 39.5157 93.4081 38.9787C93.4081 38.4417 93.1948 37.9267 92.815 37.5469C92.4353 37.1672 91.9203 36.9539 91.3833 36.9539Z" fill="white"/>
<path d="M92.6938 44.9689C92.3287 44.6566 91.8637 44.4853 91.3833 44.4862H68.3813C67.8443 44.4862 67.3292 44.6995 66.9495 45.0793C66.5698 45.459 66.3564 45.974 66.3564 46.511C66.3564 47.0481 66.5698 47.5631 66.9495 47.9428C67.3292 48.3225 67.8443 48.5359 68.3813 48.5359H85.6085L92.9368 45.2135C92.8628 45.1253 92.7815 45.0435 92.6938 44.9689Z" fill="white"/>
<path d="M71.7847 52.0996L74.297 53.2383C74.4442 53.3048 74.6037 53.3392 74.7652 53.3392C74.9266 53.3392 75.0862 53.3048 75.2334 53.2383L77.7457 52.0996H71.7847Z" fill="white"/>
<path d="M86.2386 28.3216C86.0961 27.9318 85.8372 27.5953 85.4971 27.3574C85.1569 27.1195 84.7519 26.9919 84.3369 26.9917H75.4277C75.0387 26.9921 74.6581 27.1044 74.3312 27.3152C74.0043 27.5261 73.745 27.8265 73.5843 28.1807C73.4643 28.443 73.4024 28.7281 73.4028 29.0166C73.4036 29.5533 73.6172 30.0679 73.9967 30.4475C74.3763 30.8271 74.8909 31.0406 75.4277 31.0414H84.3369C84.6626 31.0414 84.9836 30.9629 85.2724 30.8124C85.5613 30.6619 85.8096 30.4439 85.9963 30.177C86.183 29.91 86.3025 29.602 86.3446 29.279C86.3868 28.956 86.3505 28.6276 86.2386 28.3216Z" fill="white"/>
<path d="M84.8228 48.5359L76.9601 52.0996L75.0989 52.9435C74.994 52.9908 74.8802 53.0152 74.7652 53.0152C74.6501 53.0152 74.5364 52.9908 74.4315 52.9435L72.5703 52.0996H71.7847L74.297 53.2383C74.4441 53.3048 74.6037 53.3392 74.7652 53.3392C74.9266 53.3392 75.0862 53.3048 75.2333 53.2383L77.7457 52.0996L85.6085 48.5359H84.8228ZM84.8228 48.5359L76.9601 52.0996L75.0989 52.9435C74.994 52.9908 74.8802 53.0152 74.7652 53.0152C74.6501 53.0152 74.5364 52.9908 74.4315 52.9435L72.5703 52.0996H71.7847L74.297 53.2383C74.4441 53.3048 74.6037 53.3392 74.7652 53.3392C74.9266 53.3392 75.0862 53.3048 75.2333 53.2383L77.7457 52.0996L85.6085 48.5359H84.8228ZM84.8228 48.5359L76.9601 52.0996L75.0989 52.9435C74.994 52.9908 74.8802 53.0152 74.7652 53.0152C74.6501 53.0152 74.5364 52.9908 74.4315 52.9435L72.5703 52.0996H71.7847L74.297 53.2383C74.4441 53.3048 74.6037 53.3392 74.7652 53.3392C74.9266 53.3392 75.0862 53.3048 75.2333 53.2383L77.7457 52.0996L85.6085 48.5359H84.8228ZM111.212 37.3929C111.152 37.3334 111.087 37.2802 111.016 37.2341C110.857 37.1309 110.674 37.0696 110.485 37.0557C110.296 37.0418 110.106 37.0759 109.934 37.1547L92.6938 44.9689L84.8228 48.5359L76.96 52.0996L75.0989 52.9435C74.994 52.9908 74.8802 53.0152 74.7652 53.0152C74.6501 53.0152 74.5364 52.9908 74.4315 52.9435L72.5703 52.0996L70.6313 51.22L58.9083 45.9085L58.9051 45.9068L55.7091 44.4571L46.1666 40.132L39.5964 37.1547C39.5296 37.1238 39.4595 37.1005 39.3875 37.0851C39.2288 37.0454 39.0632 37.0421 38.9031 37.0754C38.6469 37.1278 38.4167 37.267 38.2511 37.4694C38.0856 37.6718 37.9949 37.9251 37.9944 38.1866V78.8661C37.9947 79.1667 38.1143 79.455 38.3269 79.6675C38.5394 79.8801 38.8277 79.9997 39.1283 80H110.402C110.703 79.9997 110.991 79.8801 111.203 79.6675C111.416 79.455 111.536 79.1667 111.536 78.8661V38.1866C111.537 37.8897 111.42 37.6046 111.212 37.3929V37.3929ZM111.212 78.8661C111.212 79.0809 111.127 79.2868 110.975 79.4387C110.823 79.5906 110.617 79.6759 110.402 79.676H39.1283C38.9135 79.6759 38.7075 79.5906 38.5557 79.4387C38.4038 79.2868 38.3184 79.0809 38.3184 78.8661V38.1866C38.3184 38.0512 38.3524 37.918 38.4172 37.7992C38.482 37.6803 38.5756 37.5796 38.6893 37.5063C38.7693 37.455 38.8575 37.4177 38.9501 37.3961C38.9774 37.3902 39.0049 37.3859 39.0327 37.3831C39.0644 37.3786 39.0963 37.3764 39.1283 37.3767C39.2434 37.3768 39.3572 37.4017 39.462 37.4496L46.3204 40.5581L55.8063 44.8572L58.4726 46.0656L58.9051 46.2616L70.194 51.3787L71.7846 52.0996L74.297 53.2383C74.4441 53.3048 74.6037 53.3392 74.7652 53.3392C74.9266 53.3392 75.0862 53.3048 75.2333 53.2383L77.7457 52.0996L85.6085 48.5359L92.9368 45.2135L110.068 37.4496C110.192 37.3937 110.327 37.3696 110.462 37.3795C110.597 37.3894 110.727 37.433 110.841 37.5063C110.854 37.5139 110.867 37.5226 110.878 37.5322C110.891 37.5405 110.903 37.5503 110.914 37.5613C111.007 37.6367 111.082 37.732 111.134 37.8402C111.185 37.9484 111.212 38.0667 111.212 38.1866L111.212 78.8661ZM84.8228 48.5359L76.9601 52.0996L75.0989 52.9435C74.994 52.9908 74.8802 53.0152 74.7652 53.0152C74.6501 53.0152 74.5364 52.9908 74.4315 52.9435L72.5703 52.0996H71.7847L74.297 53.2383C74.4441 53.3048 74.6037 53.3392 74.7652 53.3392C74.9266 53.3392 75.0862 53.3048 75.2333 53.2383L77.7457 52.0996L85.6085 48.5359H84.8228ZM84.8228 48.5359L76.9601 52.0996L75.0989 52.9435C74.994 52.9908 74.8802 53.0152 74.7652 53.0152C74.6501 53.0152 74.5364 52.9908 74.4315 52.9435L72.5703 52.0996H71.7847L74.297 53.2383C74.4441 53.3048 74.6037 53.3392 74.7652 53.3392C74.9266 53.3392 75.0862 53.3048 75.2333 53.2383L77.7457 52.0996L85.6085 48.5359H84.8228ZM58.4726 46.0656L58.9051 46.2616V45.9085L58.4726 46.0656ZM84.8228 48.5359L76.9601 52.0996L75.0989 52.9435C74.994 52.9908 74.8802 53.0152 74.7652 53.0152C74.6501 53.0152 74.5364 52.9908 74.4315 52.9435L72.5703 52.0996H71.7847L74.297 53.2383C74.4441 53.3048 74.6037 53.3392 74.7652 53.3392C74.9266 53.3392 75.0862 53.3048 75.2333 53.2383L77.7457 52.0996L85.6085 48.5359H84.8228Z" fill="#3F3D56"/>
<path d="M28.4327 80H10.1283C10.0853 80 10.0441 79.9829 10.0138 79.9526C9.98337 79.9222 9.96631 79.881 9.96631 79.838C9.96631 79.795 9.98337 79.7539 10.0138 79.7235C10.0441 79.6931 10.0853 79.676 10.1283 79.676H28.4327C28.4757 79.676 28.5169 79.6931 28.5472 79.7235C28.5776 79.7539 28.5947 79.795 28.5947 79.838C28.5947 79.881 28.5776 79.9222 28.5472 79.9526C28.5169 79.9829 28.4757 80 28.4327 80Z" fill="#3F3D56"/>
<path d="M18.2052 27.7782C17.9063 27.6266 17.6578 27.3916 17.4898 27.1016C17.3217 26.8117 17.2413 26.4793 17.2583 26.1446C17.2753 25.8099 17.3889 25.4873 17.5854 25.2158C17.7819 24.9444 18.0528 24.7357 18.3655 24.615C19.566 24.1518 20.912 25.0973 22.1704 24.8284C23.4247 24.5605 24.1503 23.061 23.8509 21.8138C23.5515 20.5666 22.4618 19.6272 21.2602 19.1786C20.4755 18.8863 19.635 18.7743 18.8011 18.8507C17.9672 18.9271 17.1611 19.1901 16.4426 19.6202C15.7315 20.0628 15.1392 20.6725 14.7173 21.3962C14.2954 22.1198 14.0567 22.9356 14.0218 23.7725C14.0054 24.6102 14.2101 25.4374 14.6152 26.1708C15.0202 26.9042 15.6113 27.5179 16.329 27.9502C16.6489 28.1346 17.0212 28.2826 17.3809 28.1996C17.6763 28.1037 17.9545 27.9614 18.2052 27.7782V27.7782Z" fill="#2F2E41"/>
<path d="M16.9159 19.5232C15.8573 18.1191 14.4282 16.9655 12.7653 16.3936C11.1023 15.8217 9.20203 15.8676 7.64024 16.6758C6.07845 17.484 4.91373 19.0892 4.79215 20.8435C4.58982 23.7633 7.08466 26.2452 7.3407 29.1607C7.42185 30.0848 7.27185 31.0146 6.90422 31.8663C6.53658 32.7181 5.96285 33.465 5.2347 34.0398C4.50656 34.6146 3.64686 34.9992 2.73306 35.1591C1.81925 35.3189 0.880033 35.2489 0 34.9555C0.626811 35.4714 1.35355 35.8522 2.13456 36.0738C2.91557 36.2955 3.73398 36.3532 4.53837 36.2434C5.34145 36.1229 6.10764 35.8252 6.78138 35.3718C7.45513 34.9184 8.01953 34.3208 8.43368 33.6223C8.99517 32.6467 9.22573 31.5135 9.31529 30.3915C9.45595 28.6174 9.26547 26.8325 8.75356 25.128C8.47373 24.1981 8.09422 23.241 8.27168 22.2862C8.37283 21.7896 8.61768 21.3336 8.97581 20.9749C9.33393 20.6163 9.78955 20.3708 10.286 20.2689C11.0884 20.1186 11.9088 20.3634 12.6749 20.6453C13.4411 20.9271 14.2135 21.2532 15.0296 21.2719C15.8457 21.2905 16.7346 20.917 17.05 20.164L16.9159 19.5232Z" fill="#2F2E41"/>
</g>
<defs>
<clipPath id="clip0_4_290">
<rect width="123.199" height="80" fill="white"/>
</clipPath>
</defs>
</svg>
