<svg width="125" height="80" viewBox="0 0 125 80" fill="none" xmlns="http://www.w3.org/2000/svg">
<g clip-path="url(#clip0_4_320)">
<path d="M124.856 0.0707111H0.0533447V80H124.856V0.0707111Z" fill="#E6E6E6"/>
<path d="M121.287 10.0959H3.62207V75.2715H121.287V10.0959Z" fill="white"/>
<path d="M124.803 0H0V5.30209H124.803V0Z" fill="#F9A826"/>
<path d="M111.179 17.2281H68.3492V58.5691H111.179V17.2281Z" fill="#E6E6E6"/>
<path d="M3.94008 3.69336C4.4828 3.69336 4.92276 3.2534 4.92276 2.71068C4.92276 2.16796 4.4828 1.728 3.94008 1.728C3.39736 1.728 2.9574 2.16796 2.9574 2.71068C2.9574 3.2534 3.39736 3.69336 3.94008 3.69336Z" fill="white"/>
<path d="M7.67018 3.69336C8.2129 3.69336 8.65286 3.2534 8.65286 2.71068C8.65286 2.16796 8.2129 1.728 7.67018 1.728C7.12746 1.728 6.6875 2.16796 6.6875 2.71068C6.6875 3.2534 7.12746 3.69336 7.67018 3.69336Z" fill="white"/>
<path d="M11.4003 3.69336C11.943 3.69336 12.383 3.2534 12.383 2.71068C12.383 2.16796 11.943 1.728 11.4003 1.728C10.8576 1.728 10.4176 2.16796 10.4176 2.71068C10.4176 3.2534 10.8576 3.69336 11.4003 3.69336Z" fill="white"/>
<path d="M24.0917 17.1431H12.6704V28.5643H24.0917V17.1431Z" fill="#F9A826"/>
<path d="M39.9745 17.2086H28.5532V28.6298H39.9745V17.2086Z" fill="#E6E6E6"/>
<path d="M40.0199 32.8972H28.5986V70.9006H40.0199V32.8972Z" fill="#F9A826"/>
<path d="M23.7801 32.8124H12.3589V52.2564H23.7801V32.8124Z" fill="#E6E6E6"/>
<path d="M89.4747 23.7581C87.5939 20.5809 83.8743 20.4329 83.8743 20.4329C83.8743 20.4329 80.2493 19.9694 77.9238 24.8081C75.7564 29.3184 72.7649 33.6727 77.4427 34.7288L78.2876 32.0992L78.8109 34.9245C79.4768 34.9724 80.1449 34.9838 80.8121 34.9587C85.8211 34.7971 90.5913 35.0061 90.4378 33.2092C90.2331 30.8192 91.2839 26.815 89.4747 23.7581Z" fill="#2F2E41"/>
<path d="M76.6382 53.9277L70.2969 58.3308C70.2969 58.3308 66.5977 62.2061 69.24 62.2061C71.8823 62.2061 72.9392 58.8593 72.9392 58.8593L81.042 55.3364L76.6382 53.9277Z" fill="#FFB8B8"/>
<path d="M79.1923 36.7532C79.1923 36.7532 73.6437 53.9282 75.4051 54.8086C77.1665 55.6889 81.0418 56.2177 81.0418 56.2177L79.1923 36.7532Z" fill="#2F2E41"/>
<path opacity="0.1" d="M79.1923 36.7532C79.1923 36.7532 73.6437 53.9282 75.4051 54.8086C77.1665 55.6889 81.0418 56.2177 81.0418 56.2177L79.1923 36.7532Z" fill="black"/>
<path d="M96.6364 58.42H84.1456L93.0201 53.9282C93.2158 54.0551 93.4034 54.1939 93.582 54.3439C94.8979 55.4516 95.9428 56.8459 96.6364 58.42Z" fill="#2F2E41"/>
<path d="M82.7153 32.3492C85.2447 32.3492 87.2951 30.2988 87.2951 27.7694C87.2951 25.2401 85.2447 23.1896 82.7153 23.1896C80.1859 23.1896 78.1355 25.2401 78.1355 27.7694C78.1355 30.2988 80.1859 32.3492 82.7153 32.3492Z" fill="#FFB8B8"/>
<path d="M82.6273 31.5567C82.6273 31.5567 83.6842 34.9035 82.6273 36.1366C81.5704 37.3698 88.4402 34.3751 88.4402 34.3751C88.4402 34.3751 85.9742 30.8522 86.6787 29.2668L82.6273 31.5567Z" fill="#FFB8B8"/>
<path d="M92.7731 46.8483L92.4033 49.2598C92.4033 49.2598 92.59 49.8076 92.8172 50.6056C93.1131 51.6466 93.4778 53.1134 93.5816 54.3435C93.689 55.5906 93.5269 56.5946 92.7555 56.658C91.6493 56.7496 91.0733 57.4207 90.499 58.4196H77.7562C77.7898 57.87 77.8301 57.2992 77.8778 56.7127C77.9043 56.3604 77.9334 56.0033 77.9653 55.6417C78.0006 55.226 79.2483 47.4173 78.3106 45.7369C76.3735 42.2669 78.8391 40.2763 78.8391 40.2763C78.8391 40.2763 79.1913 37.634 79.1913 36.7534C79.1913 36.0629 81.8969 35.2649 83.0666 34.9513C83.1425 34.9319 83.2094 34.9125 83.2707 34.8985C83.4733 34.8457 83.5949 34.8157 83.5949 34.8157L84.5197 34.4366C84.5197 34.4366 87.1178 33.9347 87.2941 33.5823C87.4067 33.4304 87.5646 33.3181 87.745 33.2615C88.1166 33.103 88.5906 32.9902 88.7033 32.8775C88.8643 32.6924 89.0098 32.4944 89.1384 32.2855C89.4762 31.8981 89.9315 31.6318 90.4348 31.5274C92.3267 31.05 95.0447 31.996 95.0447 31.996L94.0935 38.2052L92.7731 46.8483Z" fill="#2F2E41"/>
<path d="M98.3047 43.0065L91.9634 47.4096C91.9634 47.4096 88.2642 51.2849 90.9065 51.2849C93.5488 51.2849 94.6048 47.9387 94.6048 47.9387L102.708 44.4158L98.3047 43.0065Z" fill="#FFB8B8"/>
<path d="M87.4104 23.4518L83.7351 21.5272L81.43 21.8844C80.6131 22.0112 79.8532 22.3807 79.249 22.9449C78.6447 23.5091 78.2241 24.242 78.0417 25.0483L77.6101 26.9521L80.2241 26.8515L80.9544 25.1476V26.8234L82.1606 26.777L82.8604 24.0643L83.2978 26.9519L87.5856 26.8645L87.4104 23.4518Z" fill="#2F2E41"/>
<path d="M93.8127 32.3494L95.0458 31.9971C95.0458 31.9971 107.552 37.1055 107.2 41.5092C106.848 45.9128 107.376 45.9123 105.262 46.089C103.149 46.2657 96.984 44.1513 97.159 43.7991C97.3339 43.4468 98.5681 41.685 98.5681 41.685L93.812 37.9858L93.8127 32.3494Z" fill="#2F2E41"/>
<path d="M87.2953 28.4742C87.6845 28.4742 88 28.1587 88 27.7696C88 27.3804 87.6845 27.0649 87.2953 27.0649C86.9062 27.0649 86.5907 27.3804 86.5907 27.7696C86.5907 28.1587 86.9062 28.4742 87.2953 28.4742Z" fill="#FFB8B8"/>
<path d="M111.179 65.2137H68.3492V70.9244H111.179V65.2137Z" fill="#E6E6E6"/>
<path d="M23.7801 56.5474H12.3589V70.8159H23.7801V56.5474Z" fill="#E6E6E6"/>
<path d="M56.2595 17.2866H44.8383V52.2562H56.2595V17.2866Z" fill="#E6E6E6"/>
<path d="M56.2142 56.5822H44.793V70.8589H56.2142V56.5822Z" fill="#E6E6E6"/>
</g>
<defs>
<clipPath id="clip0_4_320">
<rect width="124.856" height="80" fill="white"/>
</clipPath>
</defs>
</svg>
