<svg width="153" height="100" viewBox="0 0 153 100" fill="none" xmlns="http://www.w3.org/2000/svg">
<g clip-path="url(#clip0_4_143)">
<path d="M140.882 48.2875H17.0647C15.405 48.2875 14.0548 46.9373 14.0548 45.2775V3.00987C14.0548 1.35022 15.405 0 17.0647 0H140.882C142.542 0 143.892 1.35022 143.892 3.00987V45.2775C143.892 46.9373 142.542 48.2875 140.882 48.2875ZM17.0647 0.358843C15.6029 0.358843 14.4137 1.54812 14.4137 3.00987V45.2775C14.4137 46.7393 15.6029 47.9287 17.0647 47.9287H140.882C142.344 47.9287 143.534 46.7393 143.534 45.2775V3.00987C143.534 1.54812 142.344 0.358843 140.882 0.358843H17.0647V0.358843Z" fill="#3F3D56"/>
<path d="M152.694 98.7818H0V99.0837H152.694V98.7818Z" fill="#E6E6E6"/>
<path d="M152.694 83.3515H0V83.6535H152.694V83.3515Z" fill="#E6E6E6"/>
<path d="M69.5868 49.8419C69.6965 51.2199 70.4963 52.2802 71.3732 52.2103C72.2502 52.1404 72.8719 50.9668 72.762 49.5884C72.7257 49.0371 72.5579 48.5026 72.2726 48.0296L71.7343 42.197L69.0027 42.508L69.8234 48.2248C69.6165 48.7372 69.5354 49.2917 69.5868 49.8419Z" fill="#FFB6B6"/>
<path d="M66.3236 22.631C66.3236 22.631 68.8771 21.2793 70.1719 23.2993C71.4667 25.3193 72.3603 47.1661 72.3603 47.1661L68.7716 47.5493L68.0913 32.1544L66.3236 22.631V22.631Z" fill="#E6E6E6"/>
<path d="M61.0239 82.2117L63.1029 82.2115L64.0919 74.1923L61.0234 74.1925L61.0239 82.2117Z" fill="#FFB6B6"/>
<path d="M68.1468 82.1645C68.2115 82.2735 68.2457 82.6254 68.2457 82.7522C68.2457 83.1419 67.9298 83.4578 67.54 83.4578H61.1016C60.8357 83.4578 60.6202 83.2423 60.6202 82.9765V82.7084C60.6202 82.7084 60.3017 81.9028 60.9574 80.9098C60.9574 80.9098 61.7724 81.6873 62.9903 80.4695L63.3494 79.8189L65.949 81.7201L67.3899 81.8974C67.7051 81.9362 67.9846 81.8914 68.1468 82.1645H68.1468H68.1468Z" fill="#2F2E41"/>
<path d="M73.0547 81.8675L75.069 81.3527L74.0425 73.3383L71.0696 74.0979L73.0547 81.8675Z" fill="#FFB6B6"/>
<path d="M79.9445 80.0588C80.0342 80.1484 80.1544 80.4809 80.1858 80.6038C80.2822 80.9813 80.0543 81.3656 79.6767 81.4621L73.4386 83.0556C73.181 83.1214 72.9188 82.966 72.853 82.7084L72.7867 82.4486C72.7867 82.4486 72.2787 81.7469 72.6682 80.6225C72.6682 80.6225 73.6503 81.1741 74.5289 79.6928L74.7158 78.9735L77.705 80.1722L79.145 79.9874C79.4601 79.947 79.7198 79.8344 79.9445 80.0588H79.9445V80.0588Z" fill="#2F2E41"/>
<path d="M59.3038 20.9071L59.2052 20.1918L60.3768 17.3304L63.5959 16.9727L64.2909 21.0692L59.3038 20.9071Z" fill="#FFB6B6"/>
<path opacity="0.1" d="M59.3038 20.9071L59.2052 20.1918L60.3768 17.3304L63.5959 16.9727L64.2909 21.0692L59.3038 20.9071Z" fill="black"/>
<path d="M55.5481 41.1158L54.1174 45.0503L55.1905 47.1963L60.5556 78.3141H64.1225L63.417 50.7731L71.6436 78.3141H75.1738L72.335 59.715L70.2128 42.5465L68.9257 41.7514L62.7017 38.2544L55.5481 41.1158Z" fill="#2F2E41"/>
<path d="M64.6688 43.7984L62.5228 44.1561L59.6614 37.3602H66.0995L64.6688 43.7984Z" fill="#E6E6E6"/>
<path d="M68.961 42.01L64.6689 43.7984L63.2381 40.5793L62.5228 44.1561L55.0116 41.7382L56.0846 37.3602L55.0116 23.0532L58.7994 20.528L59.3037 20.1918L63.9535 20.5494L64.3613 20.7712L67.1726 22.3378L67.8879 34.1411L68.961 42.01Z" fill="#2F2E41"/>
<path d="M64.3613 20.7712L62.344 29.3125L58.7994 20.528L59.3038 20.1918L63.9535 20.5494L64.3613 20.7712Z" fill="#E6E6E6"/>
<path d="M60.9132 20.1918L60.1979 21.4238L60.9132 21.8344L60.5556 29.3347L61.9863 31.2797L63.417 28.4051L62.3439 21.8344L62.7016 20.1918H60.9132Z" fill="#2F2E41"/>
<path d="M61.9863 19.4764C63.8629 19.4764 65.3842 17.9551 65.3842 16.0785C65.3842 14.2019 63.8629 12.6806 61.9863 12.6806C60.1097 12.6806 58.5884 14.2019 58.5884 16.0785C58.5884 17.9551 60.1097 19.4764 61.9863 19.4764Z" fill="#FFB6B6"/>
<path d="M59.8148 16.3766L60.549 16.697L60.8694 14.7745C60.8694 14.7745 62.1511 14.1336 63.1123 14.4541C64.0736 14.7745 65.6757 14.4541 65.6757 14.4541C65.6757 14.4541 65.6757 11.2499 63.4328 11.2499C61.1898 11.2499 58.9469 11.5703 58.9469 12.5316C58.9469 13.4928 57.9856 14.4541 57.9856 14.4541C57.9856 14.4541 56.704 16.3766 57.9856 17.6582C59.2673 18.9399 59.9082 18.9399 59.9082 18.9399L59.8148 16.3766Z" fill="#2F2E41"/>
<path d="M53.2215 49.7414C53.1843 51.1232 53.8671 52.2625 54.7464 52.286C55.6258 52.3096 56.3687 51.2086 56.4058 49.8263C56.4281 49.2744 56.318 48.7251 56.0846 48.2244L56.1685 42.3677L53.4193 42.3869L53.6284 48.1585C53.3683 48.6461 53.2288 49.1888 53.2215 49.7414V49.7414Z" fill="#FFB6B6"/>
<path d="M56.6229 22.3311C56.6229 22.3311 54.298 21.6158 53.225 23.7618C52.152 25.9079 53.5827 47.7261 53.5827 47.7261H57.1918L56.2339 32.3461L56.6229 22.3311V22.3311Z" fill="#E6E6E6"/>
<path d="M145.808 62.9784L137.138 60.3244C136.946 60.2657 136.745 60.2442 136.545 60.2612L92.6048 64.0009C91.9782 64.0542 91.8208 64.8992 92.386 65.1746L93.7935 65.8603H93.756V98.6858H95.0823V66.4882L99.4935 68.6372C99.831 68.8016 100.208 68.8688 100.581 68.831L101.051 68.7836V98.6858H102.377V68.6496L136.363 65.2167V98.6858H137.689V65.0828L143.326 64.5134V98.6858H144.652V64.3794L145.68 64.2756C146.402 64.2026 146.502 63.1908 145.808 62.9784H145.808Z" fill="#3F3D56"/>
<path d="M105.361 63.8709C106.19 63.8709 118.458 62.3788 118.458 62.3788L120.282 64.8656L107.516 67.3524L105.361 63.8709V63.8709Z" fill="white"/>
<path d="M118.825 97.4109L116.694 97.407L115.694 89.184L118.84 89.1896L118.825 97.4109Z" fill="#A0616A"/>
<path d="M111.523 97.35C111.456 97.4617 111.421 97.8224 111.421 97.9523C111.42 98.3519 111.743 98.6763 112.143 98.677L118.743 98.6883C119.016 98.6888 119.237 98.4682 119.238 98.1957L119.238 97.9209C119.238 97.9209 119.566 97.0955 118.896 96.0763C118.896 96.0763 118.059 96.872 116.812 95.6213L116.445 94.9537L113.777 96.8982L112.299 97.0775C111.976 97.1168 111.69 97.0703 111.523 97.35H111.523L111.523 97.35Z" fill="#2F2E41"/>
<path d="M130.265 93.5871L128.583 94.8554L122.89 88.9728L125.372 87.1007L130.265 93.5871Z" fill="#A0616A"/>
<path d="M124.475 97.8951C124.489 98.0227 124.676 98.3282 124.754 98.4307C124.991 98.7459 125.44 98.8087 125.755 98.5709L130.962 94.6424C131.178 94.4802 131.22 94.1744 131.058 93.9594L130.895 93.7425C130.895 93.7425 130.661 92.8966 129.524 92.4935C129.524 92.4935 129.34 93.6197 127.611 93.3778L126.924 93.0707L125.981 96.1946L124.924 97.2172C124.693 97.4409 124.44 97.5752 124.475 97.8951L124.475 97.8951V97.8951Z" fill="#2F2E41"/>
<path d="M125.81 51.0885C125.81 53.054 124.217 54.6474 122.252 54.6474C120.286 54.6474 118.693 53.054 118.693 51.0885C118.693 49.1229 120.286 47.5295 122.252 47.5295C124.217 47.5295 125.81 49.1229 125.81 51.0885Z" fill="#A0616A"/>
<path d="M125.475 71.6083C125.475 71.6083 112.372 70.8666 111.63 72.35C110.888 73.8334 115.64 94.2095 115.64 94.2095L119.879 93.3211L117.811 79.0254C117.811 79.0254 128.745 81.9213 130.229 78.4599C131.712 74.9987 131.285 73.7098 131.285 73.7098L125.475 71.6083V71.6083Z" fill="#2F2E41"/>
<path d="M128.832 69.1183C128.832 69.1183 115.999 71.8694 115.676 73.4961C115.354 75.1229 125.326 93.5162 125.326 93.5162L129.179 91.538L123.403 78.2986C123.403 78.2986 134.714 78.1988 135.229 74.4684C135.744 70.738 134.991 69.608 134.991 69.608L128.832 69.1183V69.1183Z" fill="#2F2E41"/>
<path d="M130.296 55.1671H124.131L119.912 62.0897C119.912 62.0897 118.923 66.5633 119.912 67.0461C120.901 67.5289 120.901 72.7209 120.901 72.7209L131.285 73.7098C131.285 73.7098 132.769 58.134 132.274 56.6506C131.78 55.1671 130.296 55.1671 130.296 55.1671V55.1671Z" fill="#F9A826"/>
<path d="M120.53 59.741L119.912 67.0461L112.96 64.0956L111.301 63.2611C110.976 62.8374 110.554 62.4976 110.071 62.2702C108.869 61.6846 107.594 61.8297 107.221 62.5941C106.848 63.3586 107.52 64.4528 108.721 65.0381C109.198 65.2787 109.726 65.4015 110.26 65.3963L115.115 68.1537L115.121 68.1429L115.142 68.1813L122.755 71.3611L124.507 61.7712L120.53 59.741H120.53Z" fill="#A0616A"/>
<path d="M119.789 51.5822C119.789 51.5822 116.08 52.0767 117.564 48.8626C117.564 48.8626 117.337 47.1203 118.439 47.0025C119.541 46.8848 121.025 44.9069 121.025 44.9069C121.025 44.9069 124.426 43.1762 126.187 44.9069C127.947 46.6375 133.139 56.7742 133.139 56.7742L129.678 60.4827C129.678 60.4827 127.597 55.0124 125.176 55.646C122.755 56.2797 120.53 58.169 120.53 58.169C120.53 58.169 118.074 56.9395 119.178 55.8679C120.283 54.7963 119.789 51.5822 119.789 51.5822Z" fill="#2F2E41"/>
<path d="M124.733 57.0214C124.733 57.0214 123.003 54.7963 121.766 56.527C120.53 58.2576 119.541 60.4827 119.541 60.4827L124.486 62.2134L124.733 57.0214H124.733Z" fill="#F9A826"/>
<path d="M143.508 98.1936L137.763 79.9339L137.764 79.9338H137.777L137.754 79.9039L137.753 79.9033L137.344 78.6027L137.344 78.6025C137.968 78.0654 138.392 77.2978 138.477 76.4142L135.851 61.971C136.031 60.0744 134.577 58.4165 132.672 58.3486L126.747 58.3336C125.063 58.274 123.604 59.4908 123.359 61.1586L123.228 62.0439L121.412 74.3933C121.346 74.8375 121.373 75.2752 121.477 75.6847L120.171 75.8555L119.774 75.9085L118.208 76.1124L118.203 76.1141L118.007 76.139H117.795V81.4441H117.808V98.4006C117.808 98.51 117.898 98.5995 118.007 98.5995C118.118 98.5995 118.208 98.51 118.208 98.4006V81.4441H120.532L122.851 98.3807C122.866 98.4802 122.951 98.5531 123.05 98.5531C123.059 98.5531 123.069 98.5531 123.077 98.5515C123.186 98.5365 123.263 98.4354 123.248 98.326L120.937 81.4441H132.089C133.196 81.4441 134.222 81.0927 135.058 80.491L139.48 98.3496C139.503 98.44 139.584 98.5001 139.673 98.5001C139.689 98.5001 139.706 98.4981 139.722 98.4939C139.829 98.4667 139.894 98.358 139.867 98.2512L135.402 80.2198C135.462 80.1703 135.521 80.1175 135.577 80.0631L137.352 79.9587L143.127 98.3136C143.154 98.3988 143.232 98.4534 143.317 98.4534C143.337 98.4534 143.357 98.4504 143.377 98.4441C143.482 98.411 143.541 98.2988 143.508 98.1936V98.1936ZM136.965 78.886C136.98 78.8777 136.993 78.8678 137.006 78.8595L137.006 78.8594L137.049 78.995L136.965 78.886V78.886Z" fill="#E6E6E6"/>
<path d="M30.7825 67.2426L34.6488 64.7838L36.2207 65.732L30.7825 71.9809V67.2426Z" fill="#FFB6B6"/>
<path d="M25.4953 57.7257C25.4953 57.7257 22.9272 58.33 24.1357 61.8044C25.3442 65.2788 29.2719 72.5298 30.4803 72.0766C31.6888 71.6234 31.8399 67.0916 31.8399 67.0916C31.8399 67.0916 31.6888 67.2426 31.0846 66.6384C30.4804 66.0341 30.4803 66.3101 30.4803 65.6434C30.4803 64.9767 29.9861 64.4825 29.9861 64.4825L29.4229 63.315C29.4229 63.315 29.4229 57.8768 27.157 57.5747C24.8911 57.2725 25.4953 57.7257 25.4953 57.7257L25.4953 57.7257Z" fill="#E6E6E6"/>
<path d="M37.4934 65.5696C38.4963 64.5667 38.8071 63.2515 38.1877 62.6321C37.5683 62.0127 36.2531 62.3235 35.2502 63.3264C34.2473 64.3293 33.9365 65.6445 34.5559 66.2639C35.1753 66.8833 36.4905 66.5725 37.4934 65.5696Z" fill="#FFB6B6"/>
<path d="M15.4927 77.7415L18.1309 82.1082L33.5054 81.1985L29.4116 75.9221L15.4927 77.7415Z" fill="#E6E6E6"/>
<path d="M20.0866 98.1651C19.997 98.1651 19.919 98.099 19.9065 98.0078L15.3124 64.4547C15.2987 64.3551 15.3684 64.2634 15.4679 64.2498C15.5674 64.2354 15.6592 64.3057 15.6729 64.4053L20.267 97.9584C20.2807 98.058 20.211 98.1498 20.1115 98.1634C20.1031 98.1645 20.0948 98.1651 20.0866 98.1651Z" fill="#E6E6E6"/>
<path d="M15.4926 98.2077C15.3921 98.2077 15.3107 98.1262 15.3107 98.0258V64.4365C15.3107 64.336 15.3921 64.2546 15.4926 64.2546C15.5931 64.2546 15.6746 64.336 15.6746 64.4365V98.0258C15.6746 98.1263 15.5931 98.2077 15.4926 98.2077Z" fill="#E6E6E6"/>
<path d="M38.5544 98.0742C38.477 98.0742 38.4053 98.0244 38.3808 97.9468L27.5095 63.393C27.4794 63.2971 27.5326 63.195 27.6285 63.1648C27.7243 63.1347 27.8265 63.1879 27.8566 63.2837L38.728 97.8375C38.7581 97.9334 38.7049 98.0355 38.609 98.0657C38.5908 98.0714 38.5724 98.0742 38.5544 98.0742V98.0742Z" fill="#E6E6E6"/>
<path d="M35.2338 98.1167C35.1525 98.1167 35.0785 98.062 35.0575 97.9797L27.5067 67.4835C27.482 67.3861 27.5409 67.2871 27.6382 67.2623C27.7359 67.2377 27.8347 67.2964 27.8594 67.3938L35.4102 97.8899C35.435 97.9873 35.3761 98.0863 35.2787 98.1111C35.2637 98.115 35.2486 98.1167 35.2337 98.1167H35.2338Z" fill="#E6E6E6"/>
<path d="M15.4927 64.9716L28.0925 64.7778L30.4123 78.0145H15.6746L15.4927 64.9716Z" fill="#E6E6E6"/>
<path d="M34.8554 84.4351L31.6801 90.0256L35.3669 90.8373L36.904 86.8611L34.8554 84.4351Z" fill="#FFB6B6"/>
<path d="M32.8207 88.9702C32.8207 88.9702 32.6973 88.0585 31.9719 88.3478C31.2465 88.6371 29.153 89.7123 29.153 89.7123C29.153 89.7123 34.6134 98.5848 35.6497 98.1715C36.686 97.7582 35.4455 95.2502 35.4455 95.2502L35.7192 90.8169L32.8207 88.9702H32.8207Z" fill="#2F2E41"/>
<path d="M20.8124 73.5872C20.8124 73.5872 19.6794 78.7989 23.1539 80.6116C26.6283 82.4244 38.4867 77.9681 38.4867 77.9681L33.0484 86.1165L36.825 87.636C36.825 87.636 45.4355 76.3064 44.8313 74.4936C44.227 72.6809 40.1484 72.5298 40.1484 72.5298L30.9336 72.983L28.5166 72.2277L20.8124 73.5872H20.8124Z" fill="#2F2E41"/>
<path d="M30.1578 86.9163L25.1658 90.9681L28.3045 93.0657L31.1831 89.9214L30.1578 86.9163Z" fill="#FFB6B6"/>
<path d="M26.6121 90.4C26.6121 90.4 26.8289 89.5059 26.048 89.5114C25.267 89.5169 22.9258 89.7566 22.9258 89.7566C22.9258 89.7566 24.7833 100.008 25.899 100C27.0146 99.9921 26.7718 97.2046 26.7718 97.2046L28.64 93.1749L26.6121 90.4V90.4Z" fill="#2F2E41"/>
<path d="M21.0247 71.7021C21.0247 71.7021 18.073 76.1441 20.6496 79.0969C23.2262 82.0497 35.8933 82.2139 35.8933 82.2139L27.8628 87.8248L30.8275 90.6144C30.8275 90.6144 42.9704 83.1947 43.0672 81.2863C43.164 79.378 39.4199 77.7531 39.4199 77.7531L30.6719 74.8221L28.6955 73.2391L21.0247 71.7021H21.0247Z" fill="#2F2E41"/>
<path d="M28.6075 61.4132C28.6075 61.4132 25.7373 60.3557 24.3777 60.3557C24.2478 60.3557 24.1194 60.3708 23.991 60.398C23.1209 60.5823 22.3203 61.3301 21.9366 61.7379C21.787 61.8981 21.7009 62.0053 21.7009 62.0053C21.7009 62.0053 21.71 61.9011 21.7281 61.7183C21.8172 60.7575 22.1465 57.6049 22.7372 55.5867C22.9487 54.8661 23.1919 54.2906 23.4714 54.0111C24.1224 53.3585 24.423 52.576 24.562 51.9929C24.6799 51.4929 24.6798 51.1409 24.6798 51.1409L23.5786 50.6666L23.3747 49.3342C23.3384 49.4913 23.1707 49.798 22.6073 50.3856C22.5589 50.4355 22.5061 50.4778 22.4502 50.514C21.6375 51.0246 19.9803 50.1364 19.0875 49.5774C19.4591 48.2859 20.1329 47.1045 21.3565 46.9112C24.2267 46.458 24.2267 44.7963 26.0394 46.6091C26.189 46.7586 26.34 46.9021 26.4911 47.0411C27.0712 48.1499 27.2826 49.6364 27.3582 50.6696C27.4126 51.3932 27.399 51.8962 27.399 51.8962C27.399 51.8962 28.1543 56.4281 29.3628 57.3345C30.5713 58.2409 28.6075 61.4132 28.6075 61.4132V61.4132Z" fill="#2F2E41"/>
<path d="M23.0182 54.1622L20.9771 57.1561L25.5862 58.3919V54.1622H23.0182Z" fill="#FFB6B6"/>
<path opacity="0.1" d="M23.0182 54.1622L20.9771 57.1561L25.5862 58.3919V54.1622H23.0182Z" fill="black"/>
<path d="M25.873 57.0459L21.4922 55.2332C21.4922 55.2332 15.6007 57.8012 16.0539 62.7863C16.5071 67.7713 20.7368 76.3819 20.7368 76.3819L29.1963 72.7564L28.29 63.0884L25.873 57.0459V57.0459Z" fill="#E6E6E6"/>
<path d="M23.9946 55.4988C26.1291 55.4988 27.8595 53.7684 27.8595 51.6339C27.8595 49.4994 26.1291 47.769 23.9946 47.769C21.86 47.769 20.1296 49.4994 20.1296 51.6339C20.1296 53.7684 21.86 55.4988 23.9946 55.4988Z" fill="#FFB6B6"/>
<path d="M29.2118 50.2346C28.4564 50.9899 27.8522 51.7452 27.8522 51.7452L27.5501 50.5367C27.5501 50.5367 27.4806 50.588 27.3582 50.6696C26.8794 50.9959 25.5938 51.8162 24.5621 51.9929C24.1028 52.0715 23.695 52.0216 23.4291 51.7452C22.8656 51.1575 22.698 50.8509 22.6617 50.6938L22.4578 52.0262L21.3565 52.5005C21.3565 52.5005 21.3565 54.1592 22.565 55.3707C22.6239 55.4296 22.6813 55.5021 22.7372 55.5867C23.3143 56.4568 23.7282 58.5868 23.991 60.398C24.2237 62.0083 24.3355 63.3649 24.3355 63.3649C24.3355 63.3649 23.1919 61.9328 21.9366 61.7379C21.8671 61.7274 21.7976 61.7198 21.7281 61.7183C21.7055 61.7153 21.6813 61.7153 21.6586 61.7153C20.2991 61.7153 17.4289 62.7727 17.4289 62.7727C17.4289 62.7727 15.4651 59.6004 16.6736 58.694C17.8821 57.7877 18.6374 53.2558 18.6374 53.2558C18.6374 53.2558 18.5875 51.3162 19.0876 49.5774C19.4592 48.2859 20.1329 47.1045 21.3565 46.9112C24.2267 46.458 24.2267 44.7963 26.0394 46.6091C26.189 46.7586 26.3401 46.9021 26.4911 47.0411C28.18 48.594 29.9051 49.5412 29.2118 50.2346V50.2346Z" fill="#2F2E41"/>
<path d="M12.2606 70.5126H10.8252V98.8612H12.2606V70.5126Z" fill="#3F3D56"/>
<path d="M47.0683 70.5126H45.6329V98.8612H47.0683V70.5126Z" fill="#3F3D56"/>
<path d="M37.9178 58.4914H28.4084V68.0007H37.9178V58.4914Z" fill="#F9A826"/>
<path d="M22.9272 68.6022L26.7936 66.1434L28.3655 67.0916L22.9272 73.3404V68.6022Z" fill="#FFB6B6"/>
<path d="M17.6401 59.0853C17.6401 59.0853 15.072 59.6895 16.2805 63.164C17.489 66.6384 21.4166 73.8894 22.6251 73.4362C23.8336 72.983 23.9847 68.4511 23.9847 68.4511C23.9847 68.4511 23.8336 68.6022 23.2294 67.9979C22.6251 67.3937 22.6251 67.6696 22.6251 67.003C22.6251 66.3363 22.1309 65.842 22.1309 65.842L21.5677 64.6746C21.5677 64.6746 21.5677 59.2363 19.3018 58.9342C17.0358 58.6321 17.6401 59.0853 17.6401 59.0853H17.6401Z" fill="#E6E6E6"/>
<path d="M29.6381 66.9291C30.641 65.9262 30.9519 64.6111 30.3325 63.9917C29.713 63.3722 28.3979 63.6831 27.395 64.686C26.3921 65.6889 26.0812 67.004 26.7007 67.6234C27.3201 68.2429 28.6353 67.932 29.6381 66.9291Z" fill="#FFB6B6"/>
<path d="M49.939 69.4361H6.51904V72.6657H49.939V69.4361Z" fill="#3F3D56"/>
<path d="M94.0534 43.5994H87.6409C87.1325 43.5994 86.7205 44.0115 86.7205 44.5198V47.1645C86.7205 47.6729 87.1325 48.085 87.6409 48.085H94.0534C94.5618 48.085 94.9739 47.6729 94.9739 47.1645V44.5198C94.9739 44.0115 94.5618 43.5994 94.0534 43.5994Z" fill="#3F3D56"/>
<path d="M107.51 46.2441H101.098C100.589 46.2441 100.177 46.6562 100.177 47.1645V47.1645C100.177 47.6729 100.589 48.0849 101.098 48.0849H107.51C108.018 48.0849 108.431 47.6729 108.431 47.1645C108.431 46.6562 108.018 46.2441 107.51 46.2441Z" fill="#F9A826"/>
</g>
<defs>
<clipPath id="clip0_4_143">
<rect width="152.694" height="100" fill="white"/>
</clipPath>
</defs>
</svg>
