<svg width="130" height="100" viewBox="0 0 130 100" fill="none" xmlns="http://www.w3.org/2000/svg">
<g clip-path="url(#clip0_4_232)">
<path d="M64.5442 24.8253C60.4133 23.7971 56.8666 21.7758 54.094 18.4393C53.8827 18.3098 53.7313 18.1017 53.6731 17.8608C53.6149 17.6198 53.6547 17.3656 53.7838 17.154L58.6066 9.26178C58.7361 9.05041 58.9442 8.89904 59.1851 8.84088C59.4261 8.78271 59.6803 8.82251 59.8919 8.95152L70.3421 15.3376C70.5534 15.4671 70.7048 15.6751 70.763 15.9161C70.8211 16.157 70.7814 16.4112 70.6523 16.6229L65.8295 24.515C65.7 24.7264 65.4919 24.8778 65.251 24.9359C65.01 24.9941 64.7558 24.9543 64.5442 24.8253Z" fill="#E6E6E6"/>
<path d="M61.7577 22.2911C59.5827 22.0536 57.3222 20.3153 55.0394 18.1855C54.8414 18.0643 54.6997 17.8694 54.6452 17.6438C54.5907 17.4181 54.628 17.18 54.7488 16.9818L58.8937 10.1991C59.015 10.0012 59.2098 9.85942 59.4355 9.80494C59.6611 9.75046 59.8992 9.78772 60.0974 9.90854L69.3966 15.5913C69.5946 15.7125 69.7364 15.9074 69.7908 16.1331C69.8453 16.3587 69.808 16.5968 69.6872 16.795L67.1195 20.9967C66.5793 21.8785 65.7114 22.51 64.7062 22.7526C63.7011 22.9953 62.6407 22.8293 61.7577 22.2911V22.2911Z" fill="white"/>
<path d="M81.9317 37.383C77.8008 36.3548 74.2542 34.3335 71.4816 30.997C71.2702 30.8675 71.1188 30.6594 71.0607 30.4185C71.0025 30.1775 71.0423 29.9233 71.1713 29.7117L75.9942 21.8195C76.1237 21.6081 76.3318 21.4568 76.5727 21.3986C76.8137 21.3404 77.0679 21.3802 77.2795 21.5092L87.7297 27.8953C87.941 28.0248 88.0924 28.2328 88.1505 28.4738C88.2087 28.7147 88.1689 28.9689 88.0399 29.1806L83.217 37.0728C83.0875 37.2841 82.8795 37.4355 82.6385 37.4937C82.3976 37.5518 82.1434 37.512 81.9317 37.383V37.383Z" fill="#E6E6E6"/>
<path d="M79.1453 34.8488C76.9702 34.6113 74.7098 32.873 72.427 30.7432C72.229 30.622 72.0873 30.4271 72.0328 30.2015C71.9783 29.9758 72.0156 29.7377 72.1364 29.5395L76.2813 22.7569C76.4025 22.5589 76.5974 22.4171 76.823 22.3626C77.0487 22.3082 77.2868 22.3454 77.485 22.4663L86.7842 28.149C86.9822 28.2703 87.1239 28.4651 87.1784 28.6908C87.2329 28.9164 87.1956 29.1545 87.0748 29.3527L84.5071 33.5544C83.9669 34.4362 83.099 35.0677 82.0938 35.3103C81.0886 35.553 80.0282 35.387 79.1453 34.8488Z" fill="white"/>
<path d="M68.2148 42.4061C64.0839 41.3779 60.5373 39.3566 57.7647 36.02C57.5533 35.8906 57.4019 35.6825 57.3438 35.4416C57.2856 35.2006 57.3254 34.9464 57.4544 34.7347L62.2773 26.8426C62.4068 26.6312 62.6148 26.4798 62.8558 26.4217C63.0967 26.3635 63.3509 26.4033 63.5626 26.5323L74.0127 32.9184C74.2241 33.0479 74.3755 33.2559 74.4336 33.4969C74.4918 33.7378 74.452 33.992 74.323 34.2037L69.5001 42.0958C69.3706 42.3072 69.1626 42.4586 68.9216 42.5167C68.6807 42.5749 68.4265 42.5351 68.2148 42.4061Z" fill="#E6E6E6"/>
<path d="M65.4283 39.8719C63.2533 39.6344 60.9928 37.8961 58.71 35.7663C58.5121 35.6451 58.3703 35.4502 58.3159 35.2246C58.2614 34.9989 58.2987 34.7608 58.4195 34.5626L62.5643 27.7799C62.6856 27.582 62.8805 27.4402 63.1061 27.3857C63.3318 27.3313 63.5699 27.3685 63.7681 27.4893L73.0673 33.1721C73.2652 33.2933 73.407 33.4882 73.4615 33.7139C73.516 33.9395 73.4787 34.1776 73.3578 34.3758L70.7902 38.5775C70.25 39.4593 69.3821 40.0908 68.3769 40.3334C67.3717 40.576 66.3113 40.4101 65.4283 39.8719V39.8719Z" fill="white"/>
<path d="M16.647 95.7856C16.5359 95.7907 16.4259 95.7616 16.3319 95.7021C16.238 95.6426 16.1646 95.5557 16.1217 95.4531C16.0788 95.3505 16.0684 95.2371 16.0921 95.1285C16.1157 95.0198 16.1722 94.921 16.2539 94.8456L16.291 94.6978C16.2861 94.686 16.2812 94.6742 16.2763 94.6623C16.1644 94.398 15.9768 94.1726 15.7372 94.0145C15.4976 93.8564 15.2167 93.7726 14.9296 93.7737C14.6425 93.7747 14.3622 93.8606 14.1238 94.0205C13.8854 94.1804 13.6995 94.4071 13.5896 94.6723C13.1501 95.7307 12.5907 96.7908 12.4529 97.9098C12.3922 98.4045 12.4178 98.9059 12.5285 99.3918C11.4965 97.1404 10.9605 94.6934 10.9571 92.2167C10.9568 91.5952 10.9914 90.9742 11.0605 90.3566C11.1176 89.8502 11.1969 89.3475 11.2982 88.8484C11.8514 86.1402 13.0391 83.6018 14.7638 81.4418C15.5985 80.9863 16.2736 80.2859 16.698 79.435C16.8518 79.1291 16.9605 78.8026 17.0207 78.4656C16.9265 78.4779 16.6656 77.0438 16.7366 76.9558C16.6054 76.7567 16.3705 76.6577 16.2272 76.4634C15.5144 75.497 14.5324 75.6658 14.0197 76.979C12.9246 77.5317 12.914 78.4484 13.586 79.33C14.0135 79.8909 14.0722 80.6499 14.4473 81.2504C14.4087 81.2998 14.3686 81.3476 14.33 81.397C13.6246 82.3042 13.0097 83.2783 12.4942 84.3054C12.6196 83.1547 12.47 81.9907 12.0577 80.9092C11.6399 79.9013 10.8567 79.0524 10.1671 78.181C9.33872 77.1343 7.64004 77.5911 7.4941 78.9179C7.49268 78.9308 7.4913 78.9436 7.48996 78.9564C7.59239 79.0142 7.69267 79.0756 7.79078 79.1405C7.91403 79.2228 8.00954 79.3405 8.06478 79.478C8.12002 79.6156 8.13242 79.7666 8.10036 79.9113C8.0683 80.056 7.99326 80.1877 7.88509 80.2891C7.77692 80.3904 7.64066 80.4567 7.49416 80.4793L7.47916 80.4816C7.51565 80.8508 7.58015 81.2167 7.67212 81.5761C6.78738 84.9976 8.69746 86.2438 11.4248 86.2998C11.485 86.3306 11.5437 86.3615 11.6039 86.3908C11.086 87.8585 10.7612 89.3872 10.6375 90.9386C10.5675 91.8538 10.5717 92.7732 10.6499 93.6879L10.6453 93.6554C10.4477 92.6384 9.90512 91.7208 9.10929 91.0574C7.92727 90.0864 6.25731 89.7289 4.98213 88.9484C4.84661 88.8614 4.68903 88.8149 4.52798 88.8145C4.36693 88.8141 4.20913 88.8598 4.07319 88.9462C3.93724 89.0325 3.82882 89.1559 3.76072 89.3019C3.69262 89.4478 3.66768 89.6102 3.68883 89.7699C3.69054 89.7812 3.69228 89.7926 3.69405 89.8039C3.88414 89.8814 4.06923 89.9705 4.24823 90.071C4.35066 90.1288 4.45094 90.1901 4.54905 90.255C4.6723 90.3373 4.7678 90.455 4.82304 90.5926C4.87828 90.7301 4.89068 90.8811 4.85862 91.0259C4.82655 91.1706 4.75152 91.3022 4.64335 91.4036C4.53518 91.5049 4.39893 91.5713 4.25243 91.5938L4.23741 91.5962C4.22661 91.5977 4.21734 91.5992 4.20655 91.6008C4.53135 92.3763 4.98722 93.0901 5.55418 93.711C6.10738 96.6978 8.48341 96.9812 11.025 96.1114H11.0265C11.3054 97.3232 11.7095 98.5028 12.2322 99.631H16.539C16.5545 99.5832 16.5684 99.5338 16.5823 99.4859C16.1836 99.511 15.7834 99.4871 15.3905 99.4149C15.7101 99.0228 16.0296 98.6276 16.3492 98.2355C16.3563 98.2282 16.363 98.2205 16.3693 98.2124C16.5313 98.0117 16.695 97.8126 16.8571 97.6119L16.8571 97.6117C16.8658 96.9965 16.7952 96.3828 16.6471 95.7857L16.647 95.7856Z" fill="#F2F2F2"/>
<path d="M46.5751 24.1187C47.1341 24.1187 47.5872 23.6672 47.5872 23.1102C47.5872 22.5532 47.1341 22.1017 46.5751 22.1017C46.016 22.1017 45.5629 22.5532 45.5629 23.1102C45.5629 23.6672 46.016 24.1187 46.5751 24.1187Z" fill="#E6E6E6"/>
<path d="M12.9862 94.7294L14.6828 95.8324L19.745 89.8138L17.2411 88.1857L12.9862 94.7294Z" fill="#FFB6B6"/>
<path d="M11.7758 96.4603L16.9927 99.8526L17.0356 99.7866C17.3857 99.2481 17.5076 98.5925 17.3745 97.9641C17.2413 97.3357 16.864 96.7859 16.3255 96.4357L16.3254 96.4356L15.8426 95.093L13.5944 94.6599L13.139 94.3637L11.7758 96.4603Z" fill="#2F2E41"/>
<path d="M42.0602 97.6198L44.0839 97.6196L45.0464 89.8143L42.0598 89.8145L42.0602 97.6198Z" fill="#FFB6B6"/>
<path d="M41.9891 99.7309L48.212 99.7307V99.652C48.2119 99.0096 47.9567 98.3936 47.5025 97.9393C47.0483 97.4851 46.4322 97.2299 45.7899 97.2299H45.7897L44.653 96.3676L42.5322 97.23L41.989 97.2301L41.9891 99.7309Z" fill="#2F2E41"/>
<path d="M21.1141 49.4555L39.2605 49.8545L41.0593 52.1029C41.0593 52.1029 40.9037 51.3102 41.0422 52.1808C41.1806 53.0515 44.6814 70.4112 44.0197 70.9934C43.3579 71.5756 45.2745 75.5953 45.4153 75.8405C45.556 76.0856 47.0732 88.1856 45.4153 89.1806L44.7925 93.4041H41.8945C41.8945 93.4041 38.9915 90.0445 39.5757 89.4355C40.1599 88.8265 38.489 86.8014 38.4251 85.7154C38.3612 84.6295 37.7511 79.7041 38.2238 78.9144C38.6965 78.1246 39.3355 75.1609 38.1364 74.0119C36.9372 72.863 31.3446 58.7438 31.3446 58.7438C31.3446 58.7438 29.7194 75.2963 29.7232 76.596C29.7282 78.2863 28.6182 77.4497 28.6182 78.9336C28.6182 79.2334 25.004 86.9385 22.575 89.3469L17.5519 93.2108L15.2335 91.4721V88.9605C15.2335 88.9605 17.382 84.3005 18.1315 83.5511C18.8809 82.8016 21.6482 80.5075 21.6482 79.4582C21.6482 78.409 22.9509 78.0434 22.0747 76.6523C21.1985 75.2612 21.4983 74.6617 21.7981 74.0621C22.0979 73.4625 21.5294 48.8965 21.5294 48.8965L21.1141 49.4555Z" fill="#2F2E41"/>
<path d="M24.5499 15.1843L32.4233 14.806L34.4381 18.1113C34.4381 18.1113 40.3228 18.7019 39.4813 20.9153C38.6398 23.1286 37.3409 38.3048 38.5306 40.2027C39.1583 41.2042 40.221 44.5558 41.0849 47.4985C41.2521 48.0692 41.2816 48.6714 41.171 49.2557C41.0604 49.84 40.8128 50.3897 40.4485 50.8598C40.0843 51.3298 39.6137 51.7068 39.0755 51.9598C38.5373 52.2127 37.9468 52.3344 37.3525 52.3149C31.7523 52.1303 23.4352 51.6925 22.4514 50.7087C20.9525 49.2098 19.6035 48.0107 20.5028 47.561C21.4022 47.1113 22.6885 40.5891 22.6885 40.5891C22.6885 40.5891 16.717 21.7792 18.2756 21.2251C19.8342 20.671 24.1852 18.1113 24.1852 18.1113L24.5499 15.1843Z" fill="#3F3D56"/>
<path d="M28.6807 13.0294C31.7092 13.0294 34.1642 10.5744 34.1642 7.54596C34.1642 4.51753 31.7092 2.0625 28.6807 2.0625C25.6523 2.0625 23.1973 4.51753 23.1973 7.54596C23.1973 10.5744 25.6523 13.0294 28.6807 13.0294Z" fill="#FFB6B6"/>
<path d="M0.228883 99.9406L61.1546 100C61.2154 99.9997 61.2736 99.9753 61.3165 99.9322C61.3594 99.8891 61.3835 99.8308 61.3835 99.77C61.3835 99.7092 61.3594 99.6508 61.3165 99.6077C61.2736 99.5646 61.2154 99.5402 61.1546 99.5399L0.228883 99.4806C0.168075 99.4809 0.109862 99.5052 0.0669711 99.5483C0.0240805 99.5914 0 99.6498 0 99.7106C0 99.7714 0.0240805 99.8297 0.0669711 99.8728C0.109862 99.916 0.168075 99.9403 0.228883 99.9406Z" fill="#CACACA"/>
<path d="M24.3 51.5513L22.7565 46.9049L19.9791 47.4163L21.7858 52.2707C21.676 52.5552 21.6477 52.8646 21.704 53.1642C21.7604 53.4639 21.8993 53.7419 22.105 53.9669C22.3107 54.192 22.5751 54.3552 22.8684 54.4383C23.1618 54.5213 23.4726 54.5208 23.7657 54.437C24.0588 54.3531 24.3228 54.1891 24.5278 53.9634C24.7329 53.7378 24.8709 53.4594 24.9264 53.1596C24.9819 52.8598 24.9527 52.5504 24.8421 52.2663C24.7314 51.9822 24.5437 51.7346 24.3 51.5513V51.5513Z" fill="#FFB6B6"/>
<path d="M18.724 21.2654L18.6508 21.2959C17.9698 21.5799 17.3683 22.0256 16.8983 22.5944C16.4284 23.1632 16.1041 23.838 15.9537 24.5603C15.56 26.4445 15.1727 29.1699 15.4789 31.7218C16.0198 36.2289 16.3803 38.212 17.1015 39.6543C17.8226 41.0965 18.0029 40.5557 17.8226 41.6374C17.6423 42.7191 16.7409 41.8177 17.6423 43.2599C18.5437 44.7022 19.0846 44.3416 18.724 45.0628C18.3634 45.7839 17.8226 45.7839 18.5437 46.6853C19.2648 47.5867 19.2648 47.9473 19.4451 48.3078C19.6254 48.6684 20.1663 51.3727 20.1663 51.3727C20.1663 51.3727 23.0508 50.4712 24.6733 50.8318C24.6733 50.8318 23.2311 48.3078 23.5916 47.767C23.9522 47.2261 24.493 47.0459 23.9522 46.505C23.4113 45.9642 22.5099 46.1444 23.4113 45.6036C24.3128 45.0627 22.6902 39.474 22.6902 39.474L18.724 21.2654Z" fill="#3F3D56"/>
<path d="M62.0897 31.5333L57.3433 30.3319L56.2787 32.9476L61.3421 34.0393C61.5226 34.285 61.7681 34.4755 62.051 34.5893C62.3338 34.7032 62.6428 34.7359 62.9432 34.6837C63.2436 34.6316 63.5236 34.4967 63.7515 34.2942C63.9795 34.0917 64.1464 33.8296 64.2336 33.5374C64.3207 33.2453 64.3247 32.9346 64.245 32.6403C64.1652 32.346 64.005 32.0798 63.7822 31.8715C63.5595 31.6633 63.2831 31.5214 62.9841 31.4616C62.6851 31.4019 62.3754 31.4267 62.0897 31.5333H62.0897Z" fill="#FFB6B6"/>
<path d="M33.5672 19.9234L33.5534 20.0015C33.426 20.7283 33.4777 21.4751 33.7039 22.1774C33.9301 22.8797 34.3241 23.5163 34.8518 24.032C36.2275 25.3784 38.3154 27.1723 40.6306 28.2885C44.7197 30.2597 46.5849 31.0238 48.1885 31.1928C49.7921 31.3618 49.4335 30.9186 50.2479 31.653C51.0623 32.3874 49.8173 32.6616 51.518 32.6786C53.2187 32.6957 53.2061 32.0458 53.6196 32.738C54.0331 33.4301 53.7419 33.8858 54.8898 33.7636C56.0376 33.6413 56.3415 33.8355 56.7424 33.8777C57.1433 33.92 59.7132 34.9205 59.7132 34.9205C59.7132 34.9205 60.5069 32.0044 61.6845 30.8314C61.6845 30.8314 58.781 30.6876 58.5195 30.0925C58.2579 29.4975 58.3972 28.9446 57.6502 29.1091C56.9033 29.2736 56.5698 30.1303 56.5994 29.0795C56.6291 28.0287 37.1782 18.5648 37.1782 18.5648L33.5672 19.9234Z" fill="#3F3D56"/>
<path d="M35.2463 6.58668C34.6551 6.77022 34.0852 6.87841 33.7007 6.39349C33.3163 5.90856 33.4167 5.35409 32.8449 5.12032C32.3666 4.95996 31.8457 4.98408 31.3843 5.18794C31.3012 5.21886 31.2201 5.25363 31.1409 5.28841C31.0964 5.24977 31.052 5.21307 31.0037 5.17828C30.6402 4.9198 30.1915 4.81055 29.7499 4.87303C30.0727 5.02895 30.3383 5.28239 30.5091 5.59752C30.3507 5.67673 30.1904 5.75594 30.0281 5.82356C29.3461 6.10254 28.6085 6.2188 27.8737 6.16314C27.139 6.10747 26.4273 5.8814 25.7952 5.50285C26.4288 7.17205 25.9362 7.76711 25.0069 9.29142L24.9702 9.38029C25.0629 8.98038 23.8477 8.51864 23.8477 9.09822C23.9011 9.69203 24.031 10.2765 24.2341 10.837C23.0421 9.0422 22.3389 6.94216 22.8006 4.92713C22.8992 4.50403 22.9436 4.05002 23.2121 3.70613C23.4807 3.36418 23.9753 3.16325 24.3655 3.35645C24.4139 2.70123 24.6389 2.07136 25.0167 1.53381C25.3944 0.996265 25.9108 0.571128 26.5108 0.303595C27.1109 0.0360629 27.7722 -0.063864 28.4246 0.0144415C29.0769 0.0927471 29.6958 0.346358 30.2155 0.748309C30.6985 1.12118 31.0791 1.60996 31.5099 2.04465C31.9407 2.47934 32.4508 2.87539 33.0535 2.98358C33.4361 3.0512 33.8669 3.01063 34.1721 3.25212C34.5257 3.53226 34.5295 4.02491 34.5276 4.49824C34.1817 4.48837 33.8406 4.58186 33.5481 4.76677C33.9062 4.77577 34.2523 4.89745 34.5373 5.11452C34.5428 5.11791 34.5479 5.12179 34.5527 5.12611C34.657 5.92208 34.6145 6.09018 35.2463 6.58668Z" fill="#2F2E41"/>
<path d="M60.4927 10.1258C61.0517 10.1258 61.5048 9.67426 61.5048 9.11728C61.5048 8.5603 61.0517 8.10878 60.4927 8.10878C59.9336 8.10878 59.4805 8.5603 59.4805 9.11728C59.4805 9.67426 59.9336 10.1258 60.4927 10.1258Z" fill="#E6E6E6"/>
<path d="M71.3805 11.3111C71.9395 11.3111 72.3927 10.8595 72.3927 10.3026C72.3927 9.74559 71.9395 9.29407 71.3805 9.29407C70.8215 9.29407 70.3683 9.74559 70.3683 10.3026C70.3683 10.8595 70.8215 11.3111 71.3805 11.3111Z" fill="#E6E6E6"/>
<path d="M79.3584 18.8159C79.9174 18.8159 80.3706 18.3644 80.3706 17.8074C80.3706 17.2504 79.9174 16.7989 79.3584 16.7989C78.7994 16.7989 78.3462 17.2504 78.3462 17.8074C78.3462 18.3644 78.7994 18.8159 79.3584 18.8159Z" fill="#E6E6E6"/>
<path d="M75.6157 39.1283C76.1747 39.1283 76.6279 38.6768 76.6279 38.1198C76.6279 37.5628 76.1747 37.1113 75.6157 37.1113C75.0567 37.1113 74.6035 37.5628 74.6035 38.1198C74.6035 38.6768 75.0567 39.1283 75.6157 39.1283Z" fill="#E6E6E6"/>
<path d="M65.8066 43.7844C66.3656 43.7844 66.8188 43.3329 66.8188 42.7759C66.8188 42.2189 66.3656 41.7674 65.8066 41.7674C65.2476 41.7674 64.7944 42.2189 64.7944 42.7759C64.7944 43.3329 65.2476 43.7844 65.8066 43.7844Z" fill="#E6E6E6"/>
<path d="M55.5582 41.8935C56.1172 41.8935 56.5704 41.442 56.5704 40.885C56.5704 40.328 56.1172 39.8765 55.5582 39.8765C54.9992 39.8765 54.546 40.328 54.546 40.885C54.546 41.442 54.9992 41.8935 55.5582 41.8935Z" fill="#E6E6E6"/>
<path d="M48.4797 34.3887C49.0387 34.3887 49.4919 33.9372 49.4919 33.3802C49.4919 32.8232 49.0387 32.3717 48.4797 32.3717C47.9207 32.3717 47.4675 32.8232 47.4675 33.3802C47.4675 33.9372 47.9207 34.3887 48.4797 34.3887Z" fill="#E6E6E6"/>
<path d="M51.0034 14.9161C51.5624 14.9161 52.0156 14.4646 52.0156 13.9076C52.0156 13.3507 51.5624 12.8991 51.0034 12.8991C50.4444 12.8991 49.9912 13.3507 49.9912 13.9076C49.9912 14.4646 50.4444 14.9161 51.0034 14.9161Z" fill="#E6E6E6"/>
<path d="M54.0399 24.3708C54.5989 24.3708 55.0521 23.9193 55.0521 23.3623C55.0521 22.8053 54.5989 22.3538 54.0399 22.3538C53.4809 22.3538 53.0277 22.8053 53.0277 23.3623C53.0277 23.9193 53.4809 24.3708 54.0399 24.3708Z" fill="#E6E6E6"/>
<path d="M70.1085 20.2108C70.6675 20.2108 71.1207 19.7592 71.1207 19.2023C71.1207 18.6453 70.6675 18.1938 70.1085 18.1938C69.5495 18.1938 69.0963 18.6453 69.0963 19.2023C69.0963 19.7592 69.5495 20.2108 70.1085 20.2108Z" fill="#E6E6E6"/>
<path d="M72.5124 29.4133C73.0715 29.4133 73.5246 28.9618 73.5246 28.4048C73.5246 27.8478 73.0715 27.3963 72.5124 27.3963C71.9534 27.3963 71.5002 27.8478 71.5002 28.4048C71.5002 28.9618 71.9534 29.4133 72.5124 29.4133Z" fill="#E6E6E6"/>
<path d="M79.5978 31.5564C81.205 31.5564 82.5078 30.2583 82.5078 28.6569C82.5078 27.0556 81.205 25.7575 79.5978 25.7575C77.9906 25.7575 76.6877 27.0556 76.6877 28.6569C76.6877 30.2583 77.9906 31.5564 79.5978 31.5564Z" fill="#F9A826"/>
<path d="M65.174 36.9771C66.7811 36.9771 68.084 35.6789 68.084 34.0776C68.084 32.4763 66.7811 31.1782 65.174 31.1782C63.5668 31.1782 62.2639 32.4763 62.2639 34.0776C62.2639 35.6789 63.5668 36.9771 65.174 36.9771Z" fill="#F9A826"/>
<path d="M61.5048 19.2023C63.112 19.2023 64.4148 17.9041 64.4148 16.3028C64.4148 14.7015 63.112 13.4034 61.5048 13.4034C59.8976 13.4034 58.5947 14.7015 58.5947 16.3028C58.5947 17.9041 59.8976 19.2023 61.5048 19.2023Z" fill="#F9A826"/>
<path d="M64.088 15.1505C68.8082 13.6836 73.8613 15.2699 78.6074 13.916C79.699 13.6174 80.7309 13.1327 81.6578 12.4834C82.4484 11.8839 83.1907 11.2233 83.8779 10.5076C85.3056 9.09548 86.8561 7.61274 89.001 7.6291C91.8257 7.65064 93.9945 9.74882 95.8772 11.6015C96.1433 11.8634 96.5534 11.4538 96.287 11.1917C94.557 9.48925 92.6879 7.69323 90.2253 7.18506C89.1207 6.94007 87.9676 7.03585 86.9185 7.45976C86.0083 7.87332 85.1769 8.44184 84.4613 9.13997C83.703 9.83544 83.0035 10.5926 82.2349 11.2771C81.4324 12.0071 80.5081 12.5905 79.5038 13.0008C77.3281 13.8672 74.9415 13.9717 72.6274 13.9465C69.7224 13.9149 66.7482 13.717 63.934 14.5916C63.5789 14.7019 63.7304 15.2616 64.088 15.1505V15.1505Z" fill="#3F3D56"/>
<path d="M96.9123 7.69547L98.3633 10.2533L99.0654 11.491C99.1902 11.7109 99.3184 11.9293 99.4399 12.1511C99.5145 12.2873 99.6775 12.533 99.5219 12.6621C99.3851 12.7289 99.2314 12.7529 99.0808 12.7309C98.825 12.7315 98.5691 12.7258 98.3133 12.7232L96.8743 12.7086L93.9004 12.6785C93.8253 12.6811 93.7541 12.7127 93.7019 12.7668C93.6497 12.8209 93.6205 12.8931 93.6205 12.9682C93.6205 13.0434 93.6497 13.1156 93.7019 13.1697C93.7541 13.2238 93.8253 13.2554 93.9004 13.258C95.6268 13.2755 97.3543 13.312 99.0808 13.3105C99.382 13.3393 99.6834 13.2569 99.928 13.0787C100.048 12.9595 100.127 12.8057 100.155 12.639C100.182 12.4722 100.157 12.3011 100.082 12.1497C99.9115 11.7782 99.7156 11.419 99.4957 11.0747L98.8638 9.96079L97.4128 7.40293C97.3726 7.33935 97.3094 7.29384 97.2363 7.27601C97.1632 7.25819 97.0861 7.26943 97.0212 7.30738C96.9563 7.34533 96.9086 7.40701 96.8883 7.47941C96.868 7.55182 96.8766 7.62928 96.9123 7.69546V7.69547Z" fill="#3F3D56"/>
<path d="M116.091 13.963H102.754C102.681 13.9633 102.609 13.9491 102.541 13.9213C102.473 13.8935 102.412 13.8526 102.36 13.801C102.308 13.7494 102.267 13.688 102.239 13.6205C102.211 13.5529 102.197 13.4805 102.197 13.4074C102.197 13.3342 102.211 13.2618 102.239 13.1942C102.267 13.1267 102.308 13.0653 102.36 13.0137C102.412 12.9621 102.473 12.9212 102.541 12.8934C102.609 12.8656 102.681 12.8514 102.754 12.8517H116.091C116.164 12.8514 116.236 12.8656 116.304 12.8934C116.372 12.9212 116.433 12.9621 116.485 13.0137C116.537 13.0653 116.578 13.1267 116.606 13.1942C116.634 13.2618 116.648 13.3342 116.648 13.4074C116.648 13.4805 116.634 13.5529 116.606 13.6205C116.578 13.688 116.537 13.7494 116.485 13.801C116.433 13.8526 116.372 13.8935 116.304 13.9213C116.236 13.9491 116.164 13.9633 116.091 13.963H116.091Z" fill="#F9A826"/>
<path d="M116.091 22.9135H102.754C102.681 22.9137 102.609 22.8996 102.541 22.8718C102.473 22.844 102.412 22.8031 102.36 22.7514C102.308 22.6998 102.267 22.6385 102.239 22.5709C102.211 22.5034 102.197 22.4309 102.197 22.3578C102.197 22.2846 102.211 22.2122 102.239 22.1446C102.267 22.0771 102.308 22.0157 102.36 21.9641C102.412 21.9125 102.473 21.8716 102.541 21.8438C102.609 21.816 102.681 21.8018 102.754 21.8021H116.091C116.164 21.8018 116.236 21.816 116.304 21.8438C116.372 21.8716 116.433 21.9125 116.485 21.9641C116.537 22.0157 116.578 22.0771 116.606 22.1446C116.634 22.2122 116.648 22.2846 116.648 22.3578C116.648 22.4309 116.634 22.5034 116.606 22.5709C116.578 22.6385 116.537 22.6998 116.485 22.7514C116.433 22.8031 116.372 22.844 116.304 22.8718C116.236 22.8996 116.164 22.9137 116.091 22.9135H116.091Z" fill="#E6E6E6"/>
<path d="M129.183 18.4383H102.754C102.681 18.4385 102.609 18.4244 102.541 18.3966C102.473 18.3688 102.412 18.3279 102.36 18.2762C102.308 18.2246 102.267 18.1633 102.239 18.0957C102.211 18.0282 102.197 17.9557 102.197 17.8826C102.197 17.8094 102.211 17.737 102.239 17.6694C102.267 17.6019 102.308 17.5405 102.36 17.4889C102.412 17.4373 102.473 17.3964 102.541 17.3686C102.609 17.3408 102.681 17.3266 102.754 17.3269H129.183C129.256 17.3266 129.328 17.3408 129.396 17.3686C129.464 17.3964 129.525 17.4373 129.577 17.4889C129.629 17.5405 129.67 17.6019 129.698 17.6694C129.726 17.737 129.74 17.8094 129.74 17.8826C129.74 17.9557 129.726 18.0282 129.698 18.0957C129.67 18.1633 129.629 18.2246 129.577 18.2762C129.525 18.3279 129.464 18.3688 129.396 18.3966C129.328 18.4244 129.256 18.4385 129.183 18.4383V18.4383Z" fill="#E6E6E6"/>
<path d="M110.018 41.4446H96.6812C96.608 41.4449 96.5355 41.4307 96.4679 41.4029C96.4002 41.3751 96.3387 41.3343 96.2869 41.2826C96.2351 41.231 96.194 41.1696 96.1659 41.1021C96.1379 41.0345 96.1234 40.9621 96.1234 40.889C96.1234 40.8158 96.1379 40.7434 96.1659 40.6758C96.194 40.6083 96.2351 40.5469 96.2869 40.4953C96.3387 40.4437 96.4002 40.4028 96.4679 40.375C96.5355 40.3472 96.608 40.333 96.6812 40.3333H110.018C110.091 40.333 110.163 40.3472 110.231 40.375C110.299 40.4028 110.36 40.4437 110.412 40.4953C110.464 40.5469 110.505 40.6083 110.533 40.6758C110.561 40.7434 110.575 40.8158 110.575 40.889C110.575 40.9621 110.561 41.0345 110.533 41.1021C110.505 41.1696 110.464 41.231 110.412 41.2826C110.36 41.3343 110.299 41.3751 110.231 41.4029C110.163 41.4307 110.091 41.4449 110.018 41.4446Z" fill="#F9A826"/>
<path d="M110.018 50.3951H96.6812C96.608 50.3953 96.5355 50.3812 96.4679 50.3534C96.4002 50.3256 96.3387 50.2847 96.2869 50.233C96.2351 50.1814 96.194 50.1201 96.1659 50.0525C96.1379 49.985 96.1234 49.9125 96.1234 49.8394C96.1234 49.7662 96.1379 49.6938 96.1659 49.6263C96.194 49.5587 96.2351 49.4973 96.2869 49.4457C96.3387 49.3941 96.4002 49.3532 96.4679 49.3254C96.5355 49.2976 96.608 49.2834 96.6812 49.2837H110.018C110.091 49.2834 110.163 49.2976 110.231 49.3254C110.299 49.3532 110.36 49.3941 110.412 49.4457C110.464 49.4973 110.505 49.5587 110.533 49.6263C110.561 49.6938 110.575 49.7662 110.575 49.8394C110.575 49.9125 110.561 49.985 110.533 50.0525C110.505 50.1201 110.464 50.1814 110.412 50.233C110.36 50.2847 110.299 50.3256 110.231 50.3534C110.163 50.3812 110.091 50.3953 110.018 50.3951V50.3951Z" fill="#E6E6E6"/>
<path d="M123.11 45.9198H96.6812C96.608 45.9201 96.5355 45.9059 96.4679 45.8781C96.4002 45.8503 96.3387 45.8095 96.2869 45.7578C96.2351 45.7062 96.194 45.6449 96.1659 45.5773C96.1379 45.5097 96.1234 45.4373 96.1234 45.3642C96.1234 45.291 96.1379 45.2186 96.1659 45.151C96.194 45.0835 96.2351 45.0221 96.2869 44.9705C96.3387 44.9189 96.4002 44.878 96.4679 44.8502C96.5355 44.8224 96.608 44.8082 96.6812 44.8085H123.11C123.183 44.8082 123.255 44.8224 123.323 44.8502C123.391 44.878 123.452 44.9189 123.504 44.9705C123.556 45.0221 123.597 45.0835 123.625 45.151C123.653 45.2186 123.667 45.291 123.667 45.3642C123.667 45.4373 123.653 45.5097 123.625 45.5773C123.597 45.6449 123.556 45.7062 123.504 45.7578C123.452 45.8095 123.391 45.8503 123.323 45.8781C123.255 45.9059 123.183 45.9201 123.11 45.9198V45.9198Z" fill="#E6E6E6"/>
<path d="M50.8044 51.1514H37.4679C37.3948 51.1517 37.3223 51.1375 37.2546 51.1097C37.187 51.0819 37.1255 51.0411 37.0736 50.9894C37.0218 50.9378 36.9807 50.8764 36.9527 50.8089C36.9246 50.7413 36.9102 50.6689 36.9102 50.5958C36.9102 50.5226 36.9246 50.4502 36.9527 50.3826C36.9807 50.3151 37.0218 50.2537 37.0736 50.2021C37.1255 50.1505 37.187 50.1096 37.2546 50.0818C37.3223 50.054 37.3948 50.0398 37.4679 50.0401H50.8044C50.8775 50.0398 50.95 50.054 51.0177 50.0818C51.0853 50.1096 51.1468 50.1505 51.1986 50.2021C51.2505 50.2537 51.2916 50.3151 51.3196 50.3826C51.3477 50.4502 51.3621 50.5226 51.3621 50.5958C51.3621 50.6689 51.3477 50.7413 51.3196 50.8089C51.2916 50.8764 51.2505 50.9378 51.1986 50.9894C51.1468 51.0411 51.0853 51.0819 51.0177 51.1097C50.95 51.1375 50.8775 51.1517 50.8044 51.1514V51.1514Z" fill="#F9A826"/>
<path d="M50.8044 60.1019H37.4679C37.3948 60.1021 37.3223 60.088 37.2546 60.0602C37.187 60.0324 37.1255 59.9915 37.0736 59.9398C37.0218 59.8882 36.9807 59.8269 36.9527 59.7593C36.9246 59.6918 36.9102 59.6193 36.9102 59.5462C36.9102 59.473 36.9246 59.4006 36.9527 59.3331C36.9807 59.2655 37.0218 59.2041 37.0736 59.1525C37.1255 59.1009 37.187 59.06 37.2546 59.0322C37.3223 59.0044 37.3948 58.9902 37.4679 58.9905H50.8044C50.8775 58.9902 50.95 59.0044 51.0177 59.0322C51.0853 59.06 51.1468 59.1009 51.1986 59.1525C51.2505 59.2041 51.2916 59.2655 51.3196 59.3331C51.3477 59.4006 51.3621 59.473 51.3621 59.5462C51.3621 59.6193 51.3477 59.6918 51.3196 59.7593C51.2916 59.8269 51.2505 59.8882 51.1986 59.9398C51.1468 59.9915 51.0853 60.0324 51.0177 60.0602C50.95 60.088 50.8775 60.1021 50.8044 60.1019Z" fill="#E6E6E6"/>
<path d="M63.8963 55.6267H37.4679C37.3948 55.6269 37.3223 55.6128 37.2546 55.585C37.187 55.5572 37.1255 55.5163 37.0736 55.4646C37.0218 55.413 36.9807 55.3517 36.9527 55.2841C36.9246 55.2166 36.9102 55.1441 36.9102 55.071C36.9102 54.9978 36.9246 54.9254 36.9527 54.8578C36.9807 54.7903 37.0218 54.7289 37.0736 54.6773C37.1255 54.6257 37.187 54.5848 37.2546 54.557C37.3223 54.5292 37.3948 54.515 37.4679 54.5153H63.8963C63.9695 54.515 64.0419 54.5292 64.1096 54.557C64.1773 54.5848 64.2388 54.6257 64.2906 54.6773C64.3424 54.7289 64.3835 54.7903 64.4116 54.8578C64.4396 54.9254 64.4541 54.9978 64.4541 55.071C64.4541 55.1441 64.4396 55.2166 64.4116 55.2841C64.3835 55.3517 64.3424 55.413 64.2906 55.4646C64.2388 55.5163 64.1773 55.5572 64.1096 55.585C64.0419 55.6128 63.9695 55.6269 63.8963 55.6267V55.6267Z" fill="#E6E6E6"/>
<path d="M79.0899 28.7121L89.0617 36.2353L91.8999 38.3765C92.1976 38.6012 92.4868 38.0982 92.1924 37.8761L82.2205 30.3529L79.3824 28.2117C79.0846 27.987 78.7955 28.49 79.0899 28.7121H79.0899Z" fill="#3F3D56"/>
<path d="M87.5752 38.8356C89.75 39.8791 92.1144 40.4692 94.5244 40.57C94.5689 40.5694 94.6126 40.5588 94.6523 40.5388C94.692 40.5188 94.7266 40.4901 94.7535 40.4547C94.7805 40.4194 94.799 40.3783 94.8077 40.3347C94.8164 40.2912 94.8151 40.2462 94.8039 40.2032L93.2595 34.0048C93.1694 33.643 92.6103 33.7963 92.7007 34.1588L94.245 40.3573L94.5244 39.9904C92.2163 39.895 89.9517 39.3319 87.8678 38.3351C87.533 38.1747 87.2387 38.6743 87.5752 38.8356V38.8356Z" fill="#3F3D56"/>
<path d="M64.7978 33.9443L57.6324 44.1919L55.6129 47.0802C55.3987 47.3866 55.9009 47.6765 56.1133 47.3727L63.2787 37.1251L65.2983 34.2368C65.5125 33.9305 65.0103 33.6405 64.7978 33.9443V33.9443Z" fill="#3F3D56"/>
<path d="M54.9813 42.7929C54.0195 44.9968 53.5192 47.3744 53.5114 49.779C53.5119 49.8235 53.5226 49.8672 53.5425 49.9069C53.5625 49.9466 53.5913 49.9812 53.6266 50.0082C53.662 50.0351 53.703 50.0536 53.7466 50.0623C53.7902 50.0711 53.8352 50.0697 53.8782 50.0585L60.0333 48.2756C60.105 48.2531 60.1652 48.2036 60.2012 48.1376C60.2372 48.0716 60.2461 47.9942 60.2262 47.9217C60.2062 47.8492 60.1588 47.7873 60.0941 47.7491C60.0294 47.7108 59.9523 47.6992 59.8792 47.7167L53.7241 49.4996L54.0909 49.779C54.0937 47.4764 54.567 45.1986 55.4817 43.0854C55.629 42.7467 55.1298 42.4513 54.9813 42.7929V42.7929Z" fill="#3F3D56"/>
</g>
<defs>
<clipPath id="clip0_4_232">
<rect width="129.74" height="100" fill="white"/>
</clipPath>
</defs>
</svg>
